<?xml version="1.0" encoding="utf-8"?>
<!-- Generator: Adobe Illustrator 16.0.0, SVG Export Plug-In . SVG Version: 6.00 Build 0)  -->
<!DOCTYPE svg PUBLIC "-//W3C//DTD SVG 1.1//EN" "http://www.w3.org/Graphics/SVG/1.1/DTD/svg11.dtd">
<svg version="1.1" id="Layer_1" xmlns="http://www.w3.org/2000/svg" xmlns:xlink="http://www.w3.org/1999/xlink" x="0px" y="0px"
	 width="1440px" height="400px" viewBox="0 0 1440 400" enable-background="new 0 0 1440 400" xml:space="preserve">
<g>
	<path opacity="0.2" fill="#1D1D1B" d="M84.785,25.095c-2.121,0-6.34,62.35-11.073,69.221c-2.949,4.279-8.737,3.819-10.008,0.269
		c-1.269-3.554,4.36-69.817,2.242-69.817c-3.818,0-10.083,68.801-12.626,70.831s-5.078,1.523-5.078,1.523s-2.537,0.507-5.081-1.523
		s4.822-70.173,1.008-70.173c-2.12,0-10.125,65.605-11.395,69.159c-1.273,3.551-7.057,4.011-10.005-0.269
		c-4.734-6.871,3.175-67.903,1.053-67.903c-2.121,0-16.71,95.097-7.804,117.431c6.738,16.903,14.61,22.172,19.378,23.737
		c3.546,3.201,7.041,9.696,5.866,22.104c-3.1,32.802-8.876,100.033-10.799,137.082c-1.919,37.049-2.088,69.932,17.775,69.932
		c19.863,0,19.697-32.883,17.778-69.932c-1.923-37.049-7.699-104.28-10.802-137.082c-1.172-12.408,2.323-18.903,5.868-22.104
		c4.769-1.565,12.638-6.834,19.379-23.737c3.257-8.169,2.572-28.091,3.313-50.063C85.105,54.281,87.304,25.095,84.785,25.095z"/>
	<g>
		<path fill="#C8C8C8" d="M71.76,7.302c-2.121,0,1.8,76.072-2.933,82.942c-2.949,4.279-8.737,3.82-10.008,0.269
			c-1.269-3.554-5.505-83.211-7.623-83.211c-3.818,0-0.219,82.195-2.762,84.225c-2.542,2.03-5.078,1.524-5.078,1.524
			s-2.537,0.506-5.081-1.524c-2.543-2.029-4.453-84.225-8.267-84.225c-2.12,0-0.849,79.657-2.12,83.211
			c-1.273,3.552-7.058,4.011-10.006-0.269c-4.734-6.87-6.318-82.942-8.439-82.942c-2.121,0-7.218,110.137,1.689,132.47
			c6.739,16.904,14.61,22.173,19.378,23.737c3.546,3.201,7.041,9.696,5.866,22.104c-3.099,32.803-8.876,100.033-10.799,137.083
			c-1.919,37.049-2.088,69.931,17.775,69.931c19.863,0,19.697-32.882,17.778-69.931c-1.923-37.05-7.699-104.28-10.802-137.083
			c-1.172-12.408,2.323-18.903,5.868-22.104c4.769-1.564,12.637-6.833,19.379-23.737C84.483,117.438,73.878,7.302,71.76,7.302z"/>
		<path fill="#D7D7D7" d="M50.289,185.613c-0.685-7.249,0.229-12.47,1.81-16.204c-2.03-1.18-5.011-2.223-9.217-2.223
			c-3.673,0-6.473,0.798-8.538,1.781c1.696,3.765,2.707,9.11,1.994,16.646c-1.586,16.764-3.868,42.521-5.979,68.643
			c3.208-6.666,7.594-12.747,12.955-12.747c5.631,0,10,6.713,13.038,13.768C54.217,228.805,51.895,202.595,50.289,185.613z"/>
		<defs>
			<filter id="Adobe_OpacityMaskFilter" filterUnits="userSpaceOnUse" x="20.078" y="160.953" width="46.101" height="9.218">
				<feColorMatrix  type="matrix" values="1 0 0 0 0  0 1 0 0 0  0 0 1 0 0  0 0 0 1 0"/>
			</filter>
		</defs>
		<mask maskUnits="userSpaceOnUse" x="20.078" y="160.953" width="46.101" height="9.218" id="SVGID_1_">
			<g filter="url(#Adobe_OpacityMaskFilter)">
				<path fill="#FFFFFF" d="M74.513,7.302c-2.121,0-0.952,76.072-5.686,82.942c-2.949,4.279-8.737,3.82-10.008,0.269
					c-1.269-3.554-2.752-83.211-4.872-83.211c-3.817,0-2.97,82.195-5.513,84.225c-2.542,2.03-5.078,1.524-5.078,1.524
					s-2.537,0.506-5.081-1.524c-2.543-2.029-1.699-84.225-5.513-84.225c-2.122,0-3.603,79.657-4.873,83.211
					c-1.273,3.552-7.058,4.011-10.006-0.269c-4.734-6.87-3.565-82.942-5.687-82.942c-2.121,0-12.724,110.137-3.817,132.47
					c6.739,16.904,17.363,22.173,22.132,23.737c3.546,3.201,7.041,9.696,5.866,22.104c-3.099,32.803-8.876,100.033-10.799,137.083
					c-1.919,37.049-2.088,69.931,17.775,69.931c19.863,0,19.697-32.882,17.778-69.931c-1.923-37.05-7.699-104.28-10.802-137.083
					c-1.172-12.408,2.323-18.903,5.868-22.104c4.769-1.564,15.391-6.833,22.132-23.737C87.236,117.438,76.631,7.302,74.513,7.302z"
					/>
			</g>
		</mask>
		<path mask="url(#SVGID_1_)" fill="none" stroke="#B5B5B5" stroke-width="5.5054" stroke-miterlimit="10" d="M21.08,163.517
			c0,0,9.98,3.901,22.273,3.901c12.293,0,21.778-3.901,21.778-3.901"/>
		<g>
			<path fill="#B5B5B5" d="M43.354,382.587c-14.1,0-18.099-16.575-18.551-39.44c-0.484,27.896,2.459,49.48,18.551,49.48
				c16.094,0,19.038-21.585,18.554-49.48C61.456,366.012,57.453,382.587,43.354,382.587z"/>
		</g>
	</g>
	<g>
		<circle fill="#FFFFFF" cx="27.208" cy="116.709" r="7.603"/>
		<circle fill="#FFFFFF" cx="59.782" cy="116.709" r="7.604"/>
		
			<path fill="none" stroke="#3C3C3B" stroke-width="2.7527" stroke-linecap="round" stroke-linejoin="round" stroke-miterlimit="10" d="
			M43.044,119.407c0,0,9.134,2.255,5.713,7.779c-2.827,4.566-9.145,0-9.145,0"/>
		
			<path fill="#FFFFFF" stroke="#3C3C3B" stroke-width="2.9187" stroke-linecap="round" stroke-linejoin="round" stroke-miterlimit="10" d="
			M64.44,135.628c0,0-3.418,19.606-19.714,19.606c-17.277,0-20.566-19.606-20.566-19.606s10.758,3.08,19.808,3.08
			C53.156,138.708,64.44,135.628,64.44,135.628z"/>
		
			<path fill="none" stroke="#3C3C3B" stroke-width="2.7527" stroke-linecap="round" stroke-linejoin="round" stroke-miterlimit="10" d="
			M17.964,103.31c-0.456,0.397,3.542-4.994,12.395-2.944"/>
		
			<path fill="none" stroke="#3C3C3B" stroke-width="2.7527" stroke-linecap="round" stroke-linejoin="round" stroke-miterlimit="10" d="
			M69.725,103.153c0.477,0.477-3.771-5.097-12.516-2.632"/>
		<g>
			<circle fill="#3C3C3B" cx="27.208" cy="117.019" r="4.2"/>
			<circle fill="#FFFFFF" cx="28.804" cy="114.835" r="1.717"/>
		</g>
		<g>
			<circle fill="#3C3C3B" cx="59.781" cy="117.019" r="4.201"/>
			<circle fill="#FFFFFF" cx="61.512" cy="114.835" r="1.718"/>
		</g>
	</g>
</g>
<g>
	<path opacity="0.2" fill="#1D1D1B" d="M204.785,25.094c-2.12,0-6.338,62.351-11.072,69.221c-2.95,4.279-8.737,3.819-10.008,0.269
		c-1.269-3.554,4.36-69.818,2.241-69.818c-3.818,0-10.083,68.803-12.626,70.833s-5.078,1.523-5.078,1.523s-2.537,0.506-5.081-1.523
		c-2.543-2.029,4.823-70.173,1.009-70.173c-2.12,0-10.124,65.605-11.395,69.159c-1.273,3.551-7.058,4.011-10.005-0.269
		c-4.734-6.87,3.174-67.903,1.053-67.903s-16.711,95.099-7.804,117.432c6.738,16.903,14.611,22.174,19.379,23.736
		c3.546,3.201,7.04,9.697,5.866,22.106c-3.099,32.801-8.875,100.033-10.799,137.083c-1.919,37.05-2.088,69.931,17.774,69.931
		c19.864,0,19.698-32.881,17.778-69.931c-1.922-37.05-7.699-104.282-10.801-137.083c-1.172-12.409,2.322-18.905,5.868-22.106
		c4.769-1.563,12.637-6.833,19.379-23.736c3.258-8.17,2.573-28.092,3.313-50.064C205.106,54.281,207.305,25.094,204.785,25.094z"/>
	<g>
		<path fill="#C8C8C8" d="M191.761,7.301c-2.121,0,1.8,76.073-2.934,82.943c-2.948,4.278-8.737,3.818-10.008,0.268
			c-1.269-3.553-5.505-83.211-7.623-83.211c-3.819,0-0.218,82.196-2.761,84.226c-2.542,2.03-5.078,1.523-5.078,1.523
			s-2.538,0.507-5.081-1.523c-2.544-2.029-4.452-84.226-8.267-84.226c-2.12,0-0.85,79.658-2.12,83.211
			c-1.274,3.551-7.058,4.011-10.006-0.268c-4.734-6.871-6.318-82.943-8.438-82.943c-2.122,0-7.218,110.138,1.688,132.471
			c6.739,16.903,14.61,22.172,19.378,23.736c3.547,3.202,7.041,9.698,5.867,22.107c-3.1,32.8-8.876,100.033-10.799,137.082
			c-1.92,37.05-2.089,69.932,17.774,69.932s19.697-32.882,17.778-69.932c-1.923-37.049-7.699-104.282-10.802-137.082
			c-1.172-12.409,2.322-18.905,5.867-22.107c4.769-1.564,12.638-6.833,19.38-23.736C204.484,117.438,193.878,7.301,191.761,7.301z"
			/>
		<path fill="#D7D7D7" d="M170.29,185.615c-0.687-7.252,0.229-12.472,1.809-16.205c-2.03-1.182-5.012-2.225-9.218-2.225
			c-3.672,0-6.473,0.798-8.537,1.783c1.696,3.763,2.706,9.11,1.994,16.646c-1.587,16.762-3.868,42.519-5.979,68.643
			c3.208-6.667,7.595-12.749,12.955-12.749c5.631,0,10,6.714,13.038,13.769C174.217,228.807,171.894,202.594,170.29,185.615z"/>
		<defs>
			<filter id="Adobe_OpacityMaskFilter_1_" filterUnits="userSpaceOnUse" x="140.078" y="160.954" width="46.101" height="9.216">
				<feColorMatrix  type="matrix" values="1 0 0 0 0  0 1 0 0 0  0 0 1 0 0  0 0 0 1 0"/>
			</filter>
		</defs>
		<mask maskUnits="userSpaceOnUse" x="140.078" y="160.954" width="46.101" height="9.216" id="SVGID_2_">
			<g filter="url(#Adobe_OpacityMaskFilter_1_)">
				<path fill="#FFFFFF" d="M194.513,7.301c-2.121,0-0.952,76.073-5.686,82.943c-2.948,4.278-8.737,3.818-10.008,0.268
					c-1.269-3.553-2.752-83.211-4.871-83.211c-3.818,0-2.971,82.196-5.514,84.226c-2.542,2.03-5.078,1.523-5.078,1.523
					s-2.538,0.507-5.081-1.523c-2.544-2.029-1.699-84.226-5.513-84.226c-2.121,0-3.603,79.658-4.873,83.211
					c-1.274,3.551-7.058,4.011-10.006-0.268c-4.734-6.871-3.565-82.943-5.687-82.943s-12.724,110.138-3.818,132.471
					c6.74,16.903,17.364,22.172,22.132,23.736c3.547,3.202,7.041,9.698,5.867,22.107c-3.1,32.8-8.876,100.033-10.799,137.082
					c-1.92,37.05-2.089,69.932,17.774,69.932s19.697-32.882,17.778-69.932c-1.923-37.049-7.699-104.282-10.802-137.082
					c-1.172-12.409,2.322-18.905,5.867-22.107c4.769-1.564,15.391-6.833,22.133-23.736C207.236,117.438,196.631,7.301,194.513,7.301
					z"/>
			</g>
		</mask>
		<path mask="url(#SVGID_2_)" fill="none" stroke="#B5B5B5" stroke-width="5.5055" stroke-miterlimit="10" d="M141.08,163.518
			c0,0,9.98,3.899,22.274,3.899s21.778-3.899,21.778-3.899"/>
		<g>
			<path fill="#B5B5B5" d="M163.354,382.589c-14.1,0-18.099-16.575-18.551-39.442c-0.484,27.897,2.46,49.482,18.551,49.482
				c16.094,0,19.038-21.585,18.554-49.482C181.455,366.014,177.454,382.589,163.354,382.589z"/>
		</g>
	</g>
	<g>
		<circle fill="#FFFFFF" cx="147.208" cy="116.708" r="7.604"/>
		<circle fill="#FFFFFF" cx="179.781" cy="116.708" r="7.604"/>
		
			<path fill="none" stroke="#3C3C3B" stroke-width="2.7527" stroke-linecap="round" stroke-linejoin="round" stroke-miterlimit="10" d="
			M184.049,133.863c0,0-3.337,16.41-19.246,16.41c-16.867,0-20.077-16.41-20.077-16.41"/>
		
			<path fill="none" stroke="#3C3C3B" stroke-width="2.7527" stroke-linecap="round" stroke-linejoin="round" stroke-miterlimit="10" d="
			M137.657,107.145c-0.35,0.492,2.287-5.678,11.375-5.74"/>
		
			<path fill="none" stroke="#3C3C3B" stroke-width="2.7527" stroke-linecap="round" stroke-linejoin="round" stroke-miterlimit="10" d="
			M188.902,107.145c0.349,0.492-2.288-5.678-11.375-5.74"/>
		<g>
			<circle fill="#3C3C3B" cx="147.208" cy="115.391" r="4.2"/>
			<circle fill="#FFFFFF" cx="148.804" cy="113.206" r="1.718"/>
		</g>
		<g>
			<circle fill="#3C3C3B" cx="179.782" cy="115.391" r="4.2"/>
			<circle fill="#FFFFFF" cx="181.512" cy="113.206" r="1.718"/>
		</g>
		<path fill="#C8C8C8" d="M167.45,120.883c0,0,7.02-4.27,13.328-2.957c6.644,1.383,10.191,7.851,10.191,7.851l-3.583,6.302
			l-13.729-5.113L167.45,120.883"/>
		
			<path fill="none" stroke="#3C3C3B" stroke-width="2.7527" stroke-linecap="round" stroke-linejoin="round" stroke-miterlimit="10" d="
			M163.044,119.408c0,0,9.133,2.254,5.713,7.778c-2.827,4.565-9.145,0-9.145,0"/>
		<path fill="#C8C8C8" d="M159.418,120.183c0,0-6.081-4.178-12.636-2.421c-6.224,1.67-10.568,8.642-10.568,8.642v5.675l18.598-2.861
			L159.418,120.183z"/>
	</g>
</g>
<g>
	<path opacity="0.2" fill="#1D1D1B" d="M324.785,25.095c-2.119,0-6.338,62.35-11.072,69.22c-2.948,4.279-8.736,3.819-10.008,0.269
		c-1.269-3.554,4.359-69.817,2.241-69.817c-3.818,0-10.084,68.802-12.626,70.831c-2.543,2.03-5.078,1.524-5.078,1.524
		s-2.536,0.506-5.081-1.524c-2.542-2.029,4.823-70.173,1.009-70.173c-2.12,0-10.123,65.605-11.395,69.159
		c-1.273,3.551-7.057,4.011-10.005-0.269c-4.734-6.87,3.174-67.903,1.053-67.903c-2.122,0-16.71,95.098-7.804,117.431
		c6.738,16.904,14.609,22.172,19.379,23.737c3.546,3.201,7.04,9.696,5.866,22.104c-3.1,32.802-8.877,100.033-10.8,137.082
		c-1.919,37.049-2.088,69.932,17.774,69.932c19.863,0,19.698-32.883,17.778-69.932c-1.923-37.049-7.699-104.279-10.802-137.082
		c-1.173-12.408,2.323-18.903,5.867-22.104c4.77-1.565,12.638-6.833,19.38-23.737c3.257-8.169,2.571-28.091,3.313-50.063
		C325.106,54.281,327.304,25.095,324.785,25.095z"/>
	<g>
		<path fill="#C8C8C8" d="M311.761,7.302c-2.121,0,1.8,76.071-2.934,82.941c-2.949,4.279-8.737,3.82-10.008,0.27
			c-1.269-3.555-5.505-83.211-7.623-83.211c-3.818,0-0.22,82.194-2.763,84.225c-2.543,2.029-5.077,1.523-5.077,1.523
			s-2.537,0.506-5.081-1.523c-2.543-2.03-4.452-84.225-8.266-84.225c-2.12,0-0.85,79.656-2.12,83.211
			c-1.273,3.551-7.058,4.01-10.006-0.27c-4.733-6.87-6.317-82.941-8.438-82.941c-2.122,0-7.219,110.136,1.688,132.469
			c6.737,16.904,14.609,22.173,19.378,23.737c3.547,3.201,7.04,9.696,5.866,22.104c-3.099,32.803-8.876,100.034-10.799,137.083
			c-1.919,37.049-2.088,69.932,17.773,69.932c19.864,0,19.698-32.883,17.779-69.932c-1.923-37.049-7.7-104.279-10.803-137.083
			c-1.172-12.408,2.323-18.903,5.868-22.104c4.769-1.564,12.638-6.833,19.38-23.737C324.485,117.438,313.879,7.302,311.761,7.302z"
			/>
		<path fill="#D7D7D7" d="M290.291,185.613c-0.686-7.249,0.229-12.47,1.81-16.204c-2.031-1.18-5.013-2.223-9.219-2.223
			c-3.672,0-6.473,0.798-8.538,1.781c1.697,3.765,2.707,9.11,1.994,16.646c-1.585,16.764-3.867,42.52-5.978,68.643
			c3.207-6.666,7.593-12.748,12.954-12.748c5.631,0,10.001,6.713,13.038,13.768C294.218,228.805,291.894,202.594,290.291,185.613z"
			/>
		<defs>
			<filter id="Adobe_OpacityMaskFilter_2_" filterUnits="userSpaceOnUse" x="260.079" y="160.952" width="46.1" height="9.218">
				<feColorMatrix  type="matrix" values="1 0 0 0 0  0 1 0 0 0  0 0 1 0 0  0 0 0 1 0"/>
			</filter>
		</defs>
		<mask maskUnits="userSpaceOnUse" x="260.079" y="160.952" width="46.1" height="9.218" id="SVGID_3_">
			<g filter="url(#Adobe_OpacityMaskFilter_2_)">
				<path fill="#FFFFFF" d="M314.514,7.302c-2.122,0-0.953,76.071-5.687,82.941c-2.949,4.279-8.737,3.82-10.008,0.27
					c-1.269-3.555-2.753-83.211-4.872-83.211c-3.816,0-2.971,82.194-5.514,84.225c-2.543,2.029-5.077,1.523-5.077,1.523
					s-2.537,0.506-5.081-1.523c-2.543-2.03-1.698-84.225-5.513-84.225c-2.122,0-3.603,79.656-4.873,83.211
					c-1.273,3.551-7.058,4.01-10.006-0.27c-4.733-6.87-3.564-82.941-5.687-82.941c-2.121,0-12.723,110.136-3.817,132.469
					c6.739,16.904,17.363,22.173,22.132,23.737c3.547,3.201,7.04,9.696,5.866,22.104c-3.099,32.803-8.876,100.034-10.799,137.083
					c-1.919,37.049-2.088,69.932,17.773,69.932c19.864,0,19.698-32.883,17.779-69.932c-1.923-37.049-7.7-104.279-10.803-137.083
					c-1.172-12.408,2.323-18.903,5.868-22.104c4.769-1.564,15.392-6.833,22.133-23.737C327.237,117.438,316.632,7.302,314.514,7.302
					z"/>
			</g>
		</mask>
		<path mask="url(#SVGID_3_)" fill="none" stroke="#B5B5B5" stroke-width="5.5054" stroke-miterlimit="10" d="M261.081,163.516
			c0,0,9.98,3.901,22.272,3.901c12.295,0,21.778-3.901,21.778-3.901"/>
		<g>
			<path fill="#B5B5B5" d="M283.353,382.586c-14.099,0-18.098-16.574-18.55-39.439c-0.484,27.895,2.459,49.48,18.55,49.48
				c16.095,0,19.038-21.586,18.555-49.48C301.457,366.012,297.454,382.586,283.353,382.586z"/>
		</g>
	</g>
	<g>
		<circle fill="#FFFFFF" cx="267.208" cy="116.708" r="7.604"/>
		<circle fill="#FFFFFF" cx="299.782" cy="116.708" r="7.604"/>
		<g>
			<circle fill="#3C3C3B" cx="267.209" cy="117.018" r="4.201"/>
			<circle fill="#FFFFFF" cx="268.805" cy="114.835" r="1.717"/>
		</g>
		<g>
			<circle fill="#3C3C3B" cx="299.781" cy="117.018" r="4.201"/>
			<circle fill="#FFFFFF" cx="301.512" cy="114.835" r="1.718"/>
		</g>
		
			<path fill="none" stroke="#3C3C3B" stroke-width="2.7527" stroke-linecap="round" stroke-linejoin="round" stroke-miterlimit="10" d="
			M283.045,119.407c0,0,9.132,2.255,5.712,7.779c-2.826,4.566-9.144,0-9.144,0"/>
		
			<path fill="none" stroke="#3C3C3B" stroke-width="2.7527" stroke-linecap="round" stroke-linejoin="round" stroke-miterlimit="10" d="
			M278.778,144.965c0,0,5.068-3.731,10.233-5.173c5.164-1.443,9.653-1.749,9.653-1.749"/>
		
			<line fill="none" stroke="#3C3C3B" stroke-width="2.7527" stroke-linecap="round" stroke-linejoin="round" stroke-miterlimit="10" x1="257.088" y1="110.865" x2="274.887" y2="108.759"/>
		
			<path fill="none" stroke="#3C3C3B" stroke-width="2.7527" stroke-linecap="round" stroke-linejoin="round" stroke-miterlimit="10" d="
			M293.388,101.611c0,0,3.65-1.354,9.027,0.096c5.378,1.448,7.979,6.005,7.979,6.005"/>
	</g>
</g>
<g>
	<path opacity="0.2" fill="#1D1D1B" d="M444.785,25.096c-2.12,0-6.339,62.35-11.072,69.22c-2.949,4.279-8.737,3.82-10.008,0.27
		c-1.27-3.555,4.359-69.817,2.241-69.817c-3.818,0-10.084,68.801-12.627,70.831c-2.542,2.029-5.077,1.523-5.077,1.523
		s-2.537,0.506-5.081-1.523c-2.543-2.03,4.822-70.174,1.009-70.174c-2.12,0-10.124,65.605-11.395,69.16
		c-1.273,3.551-7.058,4.01-10.006-0.27c-4.734-6.87,3.175-67.902,1.054-67.902c-2.122,0-16.711,95.097-7.805,117.43
		c6.739,16.904,14.61,22.173,19.379,23.737c3.546,3.201,7.04,9.696,5.866,22.104c-3.1,32.802-8.877,100.033-10.799,137.082
		c-1.92,37.049-2.088,69.931,17.774,69.931c19.863,0,19.697-32.882,17.777-69.931c-1.923-37.049-7.699-104.28-10.802-137.082
		c-1.172-12.408,2.323-18.903,5.868-22.104c4.77-1.564,12.638-6.833,19.379-23.737c3.258-8.169,2.572-28.09,3.313-50.063
		C445.105,54.281,447.304,25.096,444.785,25.096z"/>
	<g>
		<path fill="#C8C8C8" d="M431.76,7.303c-2.12,0,1.8,76.071-2.934,82.942c-2.948,4.279-8.736,3.819-10.008,0.269
			c-1.269-3.555-5.505-83.211-7.623-83.211c-3.818,0-0.219,82.194-2.762,84.225s-5.077,1.524-5.077,1.524s-2.537,0.506-5.081-1.524
			s-4.452-84.225-8.267-84.225c-2.12,0-0.85,79.656-2.12,83.211c-1.272,3.551-7.057,4.011-10.005-0.269
			c-4.734-6.871-6.318-82.942-8.439-82.942s-7.218,110.137,1.688,132.469c6.738,16.904,14.61,22.173,19.378,23.737
			c3.547,3.201,7.041,9.696,5.867,22.104c-3.1,32.803-8.877,100.033-10.8,137.082c-1.919,37.049-2.088,69.932,17.774,69.932
			c19.863,0,19.697-32.883,17.778-69.932c-1.923-37.049-7.699-104.279-10.802-137.082c-1.172-12.408,2.322-18.903,5.868-22.104
			c4.769-1.564,12.638-6.833,19.379-23.737C444.484,117.439,433.878,7.303,431.76,7.303z"/>
		<path fill="#D7D7D7" d="M410.29,185.613c-0.686-7.249,0.229-12.47,1.81-16.204c-2.03-1.18-5.012-2.223-9.218-2.223
			c-3.673,0-6.474,0.798-8.538,1.781c1.696,3.765,2.707,9.11,1.994,16.646c-1.586,16.764-3.868,42.521-5.979,68.643
			c3.208-6.666,7.594-12.747,12.955-12.747c5.631,0,10,6.712,13.037,13.768C414.217,228.805,411.894,202.595,410.29,185.613z"/>
		<defs>
			<filter id="Adobe_OpacityMaskFilter_3_" filterUnits="userSpaceOnUse" x="380.078" y="160.953" width="46.101" height="9.218">
				<feColorMatrix  type="matrix" values="1 0 0 0 0  0 1 0 0 0  0 0 1 0 0  0 0 0 1 0"/>
			</filter>
		</defs>
		<mask maskUnits="userSpaceOnUse" x="380.078" y="160.953" width="46.101" height="9.218" id="SVGID_4_">
			<g filter="url(#Adobe_OpacityMaskFilter_3_)">
				<path fill="#FFFFFF" d="M434.513,7.303c-2.122,0-0.953,76.071-5.687,82.942c-2.948,4.279-8.736,3.819-10.008,0.269
					c-1.269-3.555-2.753-83.211-4.871-83.211c-3.817,0-2.971,82.194-5.514,84.225s-5.077,1.524-5.077,1.524
					s-2.537,0.506-5.081-1.524s-1.699-84.225-5.514-84.225c-2.121,0-3.603,79.656-4.873,83.211
					c-1.272,3.551-7.057,4.011-10.005-0.269c-4.734-6.871-3.565-82.942-5.688-82.942c-2.12,0-12.723,110.137-3.816,132.469
					c6.739,16.904,17.363,22.173,22.131,23.737c3.547,3.201,7.041,9.696,5.867,22.104c-3.1,32.803-8.877,100.033-10.8,137.082
					c-1.919,37.049-2.088,69.932,17.774,69.932c19.863,0,19.697-32.883,17.778-69.932c-1.923-37.049-7.699-104.279-10.802-137.082
					c-1.172-12.408,2.322-18.903,5.868-22.104c4.769-1.564,15.391-6.833,22.133-23.737C447.236,117.439,436.631,7.303,434.513,7.303
					z"/>
			</g>
		</mask>
		<path mask="url(#SVGID_4_)" fill="none" stroke="#B5B5B5" stroke-width="5.5054" stroke-miterlimit="10" d="M381.081,163.517
			c0,0,9.979,3.901,22.272,3.901c12.294,0,21.778-3.901,21.778-3.901"/>
		<g>
			<path fill="#B5B5B5" d="M403.353,382.587c-14.1,0-18.099-16.575-18.55-39.441c-0.484,27.896,2.459,49.481,18.55,49.481
				c16.094,0,19.038-21.586,18.555-49.481C421.456,366.012,417.453,382.587,403.353,382.587z"/>
		</g>
	</g>
	<g>
		<circle fill="#FFFFFF" cx="387.208" cy="116.709" r="7.604"/>
		<circle fill="#FFFFFF" cx="419.781" cy="116.709" r="7.604"/>
		
			<path fill="#FFFFFF" stroke="#3C3C3B" stroke-width="2.7527" stroke-linecap="round" stroke-linejoin="round" stroke-miterlimit="10" d="
			M420.065,140.057c0,0-2.66,11.696-15.347,11.696c-13.449,0-16.011-11.696-16.011-11.696H420.065z"/>
		
			<path fill="none" stroke="#3C3C3B" stroke-width="2.7527" stroke-linecap="round" stroke-linejoin="round" stroke-miterlimit="10" d="
			M375.319,104.494c-0.333,0.506,2.085-5.756,11.164-6.137"/>
		
			<path fill="none" stroke="#3C3C3B" stroke-width="2.7527" stroke-linecap="round" stroke-linejoin="round" stroke-miterlimit="10" d="
			M431.36,104.264c0.354,0.492-2.318-5.665-11.406-5.675"/>
		<g>
			<circle fill="#3C3C3B" cx="387.208" cy="117.02" r="4.2"/>
			<circle fill="#FFFFFF" cx="388.804" cy="114.836" r="1.717"/>
		</g>
		<g>
			<circle fill="#3C3C3B" cx="419.781" cy="117.02" r="4.201"/>
			<circle fill="#FFFFFF" cx="421.512" cy="114.836" r="1.718"/>
		</g>
		<path fill="#C8C8C8" d="M398.777,119.731c0,0-6.002,7.234-12.445,7.234c-6.785,0-11.576-7.234-11.576-7.234"/>
		<path fill="#C8C8C8" d="M431.805,119.731c0,0-6.002,7.234-12.445,7.234c-6.786,0-11.578-7.234-11.578-7.234"/>
		
			<path fill="none" stroke="#3C3C3B" stroke-width="2.7527" stroke-linecap="round" stroke-linejoin="round" stroke-miterlimit="10" d="
			M403.044,119.408c0,0,9.133,2.255,5.713,7.779c-2.827,4.565-9.145,0-9.145,0"/>
	</g>
</g>
<g>
	<path opacity="0.2" fill="#1D1D1B" d="M564.785,25.096c-2.12,0-6.339,62.35-11.072,69.22c-2.949,4.279-8.737,3.82-10.008,0.27
		c-1.27-3.555,4.359-69.817,2.241-69.817c-3.818,0-10.084,68.801-12.627,70.831c-2.542,2.029-5.077,1.523-5.077,1.523
		s-2.537,0.506-5.081-1.523c-2.543-2.03,4.822-70.174,1.009-70.174c-2.12,0-10.124,65.605-11.395,69.16
		c-1.273,3.551-7.058,4.01-10.006-0.27c-4.734-6.87,3.175-67.902,1.054-67.902c-2.122,0-16.711,95.097-7.805,117.43
		c6.739,16.904,14.61,22.173,19.379,23.737c3.546,3.201,7.04,9.696,5.866,22.104c-3.1,32.802-8.877,100.033-10.799,137.082
		c-1.92,37.049-2.088,69.931,17.774,69.931c19.863,0,19.697-32.882,17.777-69.931c-1.923-37.049-7.699-104.28-10.802-137.082
		c-1.172-12.408,2.323-18.903,5.868-22.104c4.77-1.564,12.638-6.833,19.379-23.737c3.258-8.169,2.572-28.09,3.313-50.063
		C565.105,54.281,567.304,25.096,564.785,25.096z"/>
	<g>
		<path fill="#C8C8C8" d="M551.76,7.303c-2.12,0,1.8,76.071-2.934,82.942c-2.948,4.279-8.736,3.819-10.008,0.269
			c-1.269-3.555-5.505-83.211-7.623-83.211c-3.818,0-0.219,82.194-2.762,84.225s-5.077,1.524-5.077,1.524s-2.537,0.506-5.081-1.524
			s-4.452-84.225-8.267-84.225c-2.12,0-0.85,79.656-2.12,83.211c-1.272,3.551-7.057,4.011-10.005-0.269
			c-4.734-6.871-6.318-82.942-8.439-82.942s-7.218,110.137,1.688,132.469c6.738,16.904,14.61,22.173,19.378,23.737
			c3.547,3.201,7.041,9.696,5.867,22.104c-3.1,32.803-8.877,100.033-10.8,137.082c-1.919,37.049-2.088,69.932,17.774,69.932
			c19.863,0,19.697-32.883,17.778-69.932c-1.923-37.049-7.699-104.279-10.802-137.082c-1.172-12.408,2.322-18.903,5.868-22.104
			c4.769-1.564,12.638-6.833,19.379-23.737C564.484,117.439,553.878,7.303,551.76,7.303z"/>
		<path fill="#D7D7D7" d="M530.29,185.613c-0.686-7.249,0.229-12.47,1.81-16.204c-2.03-1.18-5.012-2.223-9.218-2.223
			c-3.673,0-6.474,0.798-8.538,1.781c1.696,3.765,2.707,9.11,1.994,16.646c-1.586,16.764-3.868,42.521-5.979,68.643
			c3.208-6.666,7.594-12.747,12.955-12.747c5.631,0,10,6.712,13.037,13.768C534.217,228.805,531.894,202.595,530.29,185.613z"/>
		<defs>
			<filter id="Adobe_OpacityMaskFilter_4_" filterUnits="userSpaceOnUse" x="500.078" y="160.953" width="46.101" height="9.218">
				<feColorMatrix  type="matrix" values="1 0 0 0 0  0 1 0 0 0  0 0 1 0 0  0 0 0 1 0"/>
			</filter>
		</defs>
		<mask maskUnits="userSpaceOnUse" x="500.078" y="160.953" width="46.101" height="9.218" id="SVGID_5_">
			<g filter="url(#Adobe_OpacityMaskFilter_4_)">
				<path fill="#FFFFFF" d="M554.513,7.303c-2.122,0-0.953,76.071-5.687,82.942c-2.948,4.279-8.736,3.819-10.008,0.269
					c-1.269-3.555-2.753-83.211-4.871-83.211c-3.817,0-2.971,82.194-5.514,84.225s-5.077,1.524-5.077,1.524
					s-2.537,0.506-5.081-1.524s-1.699-84.225-5.514-84.225c-2.121,0-3.603,79.656-4.873,83.211
					c-1.272,3.551-7.057,4.011-10.005-0.269c-4.734-6.871-3.565-82.942-5.688-82.942c-2.12,0-12.723,110.137-3.816,132.469
					c6.739,16.904,17.363,22.173,22.131,23.737c3.547,3.201,7.041,9.696,5.867,22.104c-3.1,32.803-8.877,100.033-10.8,137.082
					c-1.919,37.049-2.088,69.932,17.774,69.932c19.863,0,19.697-32.883,17.778-69.932c-1.923-37.049-7.699-104.279-10.802-137.082
					c-1.172-12.408,2.322-18.903,5.868-22.104c4.769-1.564,15.391-6.833,22.133-23.737C567.236,117.439,556.631,7.303,554.513,7.303
					z"/>
			</g>
		</mask>
		<path mask="url(#SVGID_5_)" fill="none" stroke="#B5B5B5" stroke-width="5.5054" stroke-miterlimit="10" d="M501.081,163.517
			c0,0,9.979,3.901,22.272,3.901c12.294,0,21.778-3.901,21.778-3.901"/>
		<g>
			<path fill="#B5B5B5" d="M523.353,382.587c-14.1,0-18.099-16.575-18.55-39.441c-0.484,27.896,2.459,49.481,18.55,49.481
				c16.094,0,19.038-21.586,18.555-49.481C541.456,366.012,537.453,382.587,523.353,382.587z"/>
		</g>
	</g>
	<g>
		<circle fill="#FFFFFF" cx="507.208" cy="116.709" r="7.604"/>
		<circle fill="#FFFFFF" cx="539.781" cy="116.709" r="7.604"/>
		
			<path fill="#FFFFFF" stroke="#3C3C3B" stroke-width="2.7527" stroke-linecap="round" stroke-linejoin="round" stroke-miterlimit="10" d="
			M532.623,146.471c0,0-6.077,6.184-15.35,4.05c-9.83-2.263-8.677-13.877-8.677-13.877L532.623,146.471z"/>
		
			<path fill="none" stroke="#3C3C3B" stroke-width="2.7527" stroke-linecap="round" stroke-linejoin="round" stroke-miterlimit="10" d="
			M495.6,106.182c-0.333,0.506,2.085-5.756,11.164-6.137"/>
		
			<path fill="none" stroke="#3C3C3B" stroke-width="2.7527" stroke-linecap="round" stroke-linejoin="round" stroke-miterlimit="10" d="
			M551.641,106.796c0.354,0.492-2.318-5.665-11.406-5.676"/>
		<g>
			<circle fill="#3C3C3B" cx="507.208" cy="117.02" r="4.2"/>
			<circle fill="#FFFFFF" cx="508.804" cy="114.836" r="1.717"/>
		</g>
		<g>
			<circle fill="#3C3C3B" cx="539.781" cy="117.02" r="4.201"/>
			<circle fill="#FFFFFF" cx="541.512" cy="114.836" r="1.718"/>
		</g>
		
			<path fill="none" stroke="#3C3C3B" stroke-width="2.7527" stroke-linecap="round" stroke-linejoin="round" stroke-miterlimit="10" d="
			M523.044,119.408c0,0,9.133,2.255,5.713,7.779c-2.827,4.565-9.145,0-9.145,0"/>
	</g>
</g>
<g>
	<path opacity="0.2" fill="#1D1D1B" d="M684.785,25.095c-2.121,0-6.34,62.349-11.072,69.22c-2.949,4.279-8.736,3.819-10.008,0.269
		c-1.27-3.554,4.359-69.817,2.24-69.817c-3.818,0-10.083,68.801-12.626,70.831s-5.078,1.524-5.078,1.524s-2.537,0.506-5.081-1.524
		s4.822-70.173,1.008-70.173c-2.12,0-10.125,65.605-11.395,69.159c-1.273,3.551-7.057,4.011-10.005-0.269
		c-4.734-6.871,3.175-67.903,1.053-67.903c-2.121,0-16.71,95.098-7.804,117.431c6.738,16.904,14.61,22.172,19.378,23.737
		c3.546,3.201,7.041,9.696,5.866,22.104c-3.1,32.802-8.876,100.033-10.799,137.082c-1.919,37.051-2.088,69.932,17.775,69.932
		s19.697-32.881,17.779-69.932c-1.924-37.049-7.7-104.279-10.803-137.082c-1.172-12.408,2.323-18.903,5.869-22.104
		c4.768-1.565,12.637-6.833,19.379-23.737c3.258-8.169,2.572-28.091,3.313-50.063C685.105,54.28,687.305,25.095,684.785,25.095z"/>
	<g>
		<path fill="#C8C8C8" d="M671.76,7.302c-2.119,0,1.801,76.071-2.932,82.941c-2.949,4.279-8.738,3.819-10.009,0.269
			c-1.269-3.554-5.505-83.21-7.624-83.21c-3.818,0-0.219,82.194-2.762,84.224c-2.542,2.03-5.078,1.524-5.078,1.524
			s-2.537,0.506-5.081-1.524c-2.543-2.029-4.453-84.224-8.267-84.224c-2.12,0-0.849,79.656-2.12,83.21
			c-1.273,3.551-7.057,4.011-10.005-0.269c-4.734-6.87-6.318-82.941-8.439-82.941c-2.121,0-7.218,110.136,1.689,132.469
			c6.738,16.904,14.61,22.173,19.378,23.737c3.546,3.201,7.041,9.696,5.866,22.104c-3.099,32.803-8.876,100.034-10.799,137.083
			c-1.919,37.049-2.088,69.932,17.775,69.932c19.863,0,19.697-32.883,17.777-69.932c-1.922-37.049-7.699-104.279-10.801-137.083
			c-1.172-12.408,2.323-18.903,5.868-22.104c4.769-1.564,12.638-6.833,19.378-23.737C684.484,117.438,673.879,7.302,671.76,7.302z"
			/>
		<path fill="#D7D7D7" d="M650.289,185.613c-0.685-7.249,0.229-12.47,1.81-16.204c-2.03-1.18-5.012-2.223-9.218-2.223
			c-3.673,0-6.473,0.798-8.538,1.781c1.696,3.765,2.707,9.11,1.994,16.646c-1.586,16.764-3.868,42.52-5.979,68.643
			c3.208-6.666,7.594-12.748,12.955-12.748c5.631,0,10,6.713,13.038,13.768C654.217,228.805,651.895,202.594,650.289,185.613z"/>
		<defs>
			<filter id="Adobe_OpacityMaskFilter_5_" filterUnits="userSpaceOnUse" x="620.078" y="160.952" width="46.1" height="9.218">
				<feColorMatrix  type="matrix" values="1 0 0 0 0  0 1 0 0 0  0 0 1 0 0  0 0 0 1 0"/>
			</filter>
		</defs>
		<mask maskUnits="userSpaceOnUse" x="620.078" y="160.952" width="46.1" height="9.218" id="SVGID_6_">
			<g filter="url(#Adobe_OpacityMaskFilter_5_)">
				<path fill="#FFFFFF" d="M674.514,7.302c-2.121,0-0.953,76.071-5.686,82.941c-2.949,4.279-8.738,3.819-10.009,0.269
					c-1.269-3.554-2.753-83.21-4.872-83.21c-3.817,0-2.97,82.194-5.513,84.224c-2.542,2.03-5.078,1.524-5.078,1.524
					s-2.537,0.506-5.081-1.524c-2.543-2.029-1.699-84.224-5.513-84.224c-2.122,0-3.603,79.656-4.874,83.21
					c-1.273,3.551-7.057,4.011-10.005-0.269c-4.734-6.87-3.565-82.941-5.687-82.941c-2.121,0-12.724,110.136-3.817,132.469
					c6.739,16.904,17.363,22.173,22.132,23.737c3.546,3.201,7.041,9.696,5.866,22.104c-3.099,32.803-8.876,100.034-10.799,137.083
					c-1.919,37.049-2.088,69.932,17.775,69.932c19.863,0,19.697-32.883,17.777-69.932c-1.922-37.049-7.699-104.279-10.801-137.083
					c-1.172-12.408,2.323-18.903,5.868-22.104c4.769-1.564,15.39-6.833,22.132-23.737C687.236,117.438,676.631,7.302,674.514,7.302z
					"/>
			</g>
		</mask>
		<path mask="url(#SVGID_6_)" fill="none" stroke="#B5B5B5" stroke-width="5.5055" stroke-miterlimit="10" d="M621.08,163.516
			c0,0,9.98,3.901,22.273,3.901c12.293,0,21.777-3.901,21.777-3.901"/>
		<g>
			<path fill="#B5B5B5" d="M643.354,382.588c-14.1,0-18.099-16.576-18.551-39.441c-0.484,27.895,2.459,49.48,18.551,49.48
				c16.094,0,19.039-21.586,18.555-49.48C661.455,366.012,657.453,382.588,643.354,382.588z"/>
		</g>
	</g>
	
		<path fill="none" stroke="#3C3C3B" stroke-width="2.7527" stroke-linecap="round" stroke-linejoin="round" stroke-miterlimit="10" d="
		M643.044,119.407c0,0,9.134,2.255,5.713,7.779c-2.827,4.566-9.145,0-9.145,0"/>
	<g>
		<circle fill="#FFFFFF" cx="659.848" cy="116.76" r="7.604"/>
		<circle fill="#FFFFFF" cx="627.274" cy="116.76" r="7.603"/>
		<circle fill="#3C3C3B" cx="659.848" cy="116.76" r="4.201"/>
		<circle fill="#3C3C3B" cx="627.274" cy="116.76" r="4.2"/>
		
			<path fill="none" stroke="#3C3C3B" stroke-width="2.7527" stroke-linecap="round" stroke-linejoin="round" stroke-miterlimit="10" d="
			M669.039,97.788c0,0-1.865-4.755-9.192-4.755"/>
		
			<path fill="none" stroke="#3C3C3B" stroke-width="2.7527" stroke-linecap="round" stroke-linejoin="round" stroke-miterlimit="10" d="
			M617.174,97.788c0,0,1.865-4.755,9.19-4.755"/>
		<circle fill="#FFFFFF" cx="658.252" cy="114.578" r="1.718"/>
		<circle fill="#FFFFFF" cx="625.545" cy="114.578" r="1.718"/>
		
			<ellipse fill="#3C3C3B" stroke="#3C3C3B" stroke-width="1.6629" stroke-linecap="round" stroke-linejoin="round" stroke-miterlimit="10" cx="641.94" cy="144.125" rx="3.621" ry="4.2"/>
	</g>
</g>
<g>
	<path opacity="0.2" fill="#1D1D1B" d="M804.813,24.966c-2.122,0-6.344,62.395-11.08,69.271c-2.951,4.282-8.743,3.822-10.016,0.269
		c-1.271-3.557,4.362-69.868,2.243-69.868c-3.821,0-10.091,68.852-12.636,70.883s-5.081,1.525-5.081,1.525s-2.539,0.506-5.085-1.525
		c-2.545-2.031,4.826-70.225,1.009-70.225c-2.121,0-10.131,65.653-11.402,69.21c-1.274,3.554-7.063,4.014-10.014-0.269
		c-4.737-6.876,3.178-67.953,1.055-67.953s-16.723,95.167-7.81,117.517c6.743,16.917,14.621,22.188,19.393,23.755
		c3.549,3.203,7.046,9.703,5.87,22.121c-3.102,32.826-8.883,100.106-10.807,137.183c-1.921,37.076-2.09,69.982,17.787,69.982
		c19.879,0,19.712-32.906,17.791-69.982c-1.924-37.076-7.704-104.356-10.81-137.183c-1.173-12.418,2.324-18.918,5.873-22.121
		c4.772-1.566,12.646-6.838,19.393-23.755c3.261-8.175,2.574-28.11,3.315-50.1C805.135,54.173,807.335,24.966,804.813,24.966z"/>
	<g>
		<path fill="#C8C8C8" d="M791.779,7.159c-2.122,0,1.802,76.128-2.935,83.003c-2.951,4.283-8.743,3.823-10.016,0.27
			c-1.271-3.557-5.51-83.272-7.629-83.272c-3.821,0-0.219,82.255-2.764,84.287c-2.545,2.031-5.081,1.525-5.081,1.525
			s-2.539,0.506-5.085-1.525c-2.545-2.032-4.456-84.287-8.272-84.287c-2.121,0-0.85,79.716-2.121,83.272
			c-1.274,3.554-7.063,4.014-10.014-0.27c-4.737-6.875-6.322-83.003-8.445-83.003s-7.223,110.218,1.69,132.567
			c6.743,16.916,14.62,22.188,19.393,23.754c3.549,3.204,7.046,9.704,5.87,22.121c-3.102,32.826-8.883,100.106-10.807,137.183
			c-1.921,37.076-2.09,69.983,17.787,69.983c19.878,0,19.712-32.907,17.791-69.983c-1.924-37.076-7.704-104.356-10.81-137.183
			c-1.173-12.417,2.324-18.917,5.872-22.121c4.773-1.565,12.647-6.838,19.394-23.754C804.513,117.377,793.899,7.159,791.779,7.159z"
			/>
		<path fill="#D7D7D7" d="M770.293,185.602c-0.687-7.255,0.229-12.479,1.811-16.216c-2.031-1.181-5.015-2.225-9.225-2.225
			c-3.675,0-6.478,0.799-8.544,1.783c1.697,3.767,2.709,9.116,1.996,16.657c-1.588,16.775-3.871,42.552-5.983,68.693
			c3.21-6.672,7.6-12.757,12.965-12.757c5.635,0,10.007,6.717,13.047,13.777C774.224,228.824,771.899,202.596,770.293,185.602z"/>
		<defs>
			<filter id="Adobe_OpacityMaskFilter_6_" filterUnits="userSpaceOnUse" x="740.06" y="160.923" width="46.134" height="9.225">
				<feColorMatrix  type="matrix" values="1 0 0 0 0  0 1 0 0 0  0 0 1 0 0  0 0 0 1 0"/>
			</filter>
		</defs>
		<mask maskUnits="userSpaceOnUse" x="740.06" y="160.923" width="46.134" height="9.225" id="SVGID_7_">
			<g filter="url(#Adobe_OpacityMaskFilter_6_)">
				<path fill="#FFFFFF" d="M794.534,7.159c-2.123,0-0.953,76.128-5.689,83.003c-2.951,4.283-8.743,3.823-10.016,0.27
					c-1.271-3.557-2.755-83.272-4.875-83.272c-3.82,0-2.973,82.255-5.518,84.287c-2.545,2.031-5.081,1.525-5.081,1.525
					s-2.539,0.506-5.085-1.525c-2.545-2.032-1.7-84.287-5.518-84.287c-2.122,0-3.604,79.716-4.876,83.272
					c-1.274,3.554-7.063,4.014-10.014-0.27c-4.737-6.875-3.567-83.003-5.69-83.003c-2.122,0-12.732,110.218-3.82,132.567
					c6.744,16.916,17.376,22.188,22.148,23.754c3.549,3.204,7.046,9.704,5.87,22.121c-3.102,32.826-8.883,100.106-10.807,137.183
					c-1.921,37.076-2.09,69.983,17.787,69.983c19.878,0,19.712-32.907,17.791-69.983c-1.924-37.076-7.704-104.356-10.81-137.183
					c-1.173-12.417,2.324-18.917,5.872-22.121c4.773-1.565,15.402-6.838,22.149-23.754C807.267,117.377,796.654,7.159,794.534,7.159
					z"/>
			</g>
		</mask>
		<path mask="url(#SVGID_7_)" fill="none" stroke="#B5B5B5" stroke-width="5.5095" stroke-miterlimit="10" d="M741.063,163.488
			c0,0,9.987,3.904,22.289,3.904c12.303,0,21.794-3.904,21.794-3.904"/>
		<g>
			<path fill="#B5B5B5" d="M763.352,382.72c-14.109,0-18.112-16.588-18.563-39.47c-0.485,27.916,2.461,49.518,18.563,49.518
				c16.106,0,19.053-21.602,18.568-49.518C781.468,366.132,777.462,382.72,763.352,382.72z"/>
		</g>
	</g>
	<g>
		<circle fill="#FFFFFF" cx="747.195" cy="116.646" r="7.609"/>
		<circle fill="#FFFFFF" cx="779.792" cy="116.646" r="7.609"/>
		<g>
			<circle fill="#3C3C3B" cx="747.169" cy="116.633" r="4.203"/>
			<circle fill="#FFFFFF" cx="748.766" cy="114.448" r="1.719"/>
		</g>
		<g>
			<circle fill="#3C3C3B" cx="779.766" cy="116.633" r="4.204"/>
			<circle fill="#FFFFFF" cx="781.498" cy="114.448" r="1.719"/>
		</g>
		
			<path fill="none" stroke="#3C3C3B" stroke-width="2.7547" stroke-linecap="round" stroke-linejoin="round" stroke-miterlimit="10" d="
			M763.042,119.347c0,0,9.141,2.257,5.718,7.785c-2.829,4.569-9.151,0-9.151,0"/>
		
			<line fill="none" stroke="#3C3C3B" stroke-width="2.7547" stroke-linecap="round" stroke-linejoin="round" stroke-miterlimit="10" x1="740.726" y1="105.215" x2="753.007" y2="105.215"/>
		
			<line fill="none" stroke="#3C3C3B" stroke-width="2.7547" stroke-linecap="round" stroke-linejoin="round" stroke-miterlimit="10" x1="774.245" y1="105.215" x2="786.527" y2="105.215"/>
		<path fill="#C8C8C8" d="M737.571,113.442h20.722c0,0-4.57-5.79-10.665-5.79S737.571,113.442,737.571,113.442z"/>
		<path fill="#C8C8C8" d="M769.873,113.442h20.722c0,0-4.571-5.79-10.665-5.79C773.834,107.652,769.873,113.442,769.873,113.442z"/>
		
			<path fill="none" stroke="#3C3C3B" stroke-width="2.7547" stroke-linecap="round" stroke-linejoin="round" stroke-miterlimit="10" d="
			M754.027,144.525c0,0,6.095-3.656,10.666-3.656c4.57,0,6.399,2.741,6.399,2.741"/>
	</g>
</g>
<g>
	<path opacity="0.2" fill="#1D1D1B" d="M924.784,25.096c-2.119,0-6.338,62.35-11.072,69.219c-2.948,4.279-8.736,3.82-10.008,0.27
		c-1.269-3.555,4.359-69.818,2.241-69.818c-3.818,0-10.084,68.803-12.626,70.832c-2.543,2.029-5.078,1.523-5.078,1.523
		s-2.536,0.506-5.08-1.523c-2.543-2.029,4.822-70.174,1.008-70.174c-2.12,0-10.123,65.605-11.395,69.16
		c-1.273,3.551-7.057,4.01-10.005-0.27c-4.734-6.869,3.174-67.902,1.053-67.902c-2.122,0-16.71,95.098-7.804,117.43
		c6.738,16.904,14.609,22.172,19.379,23.738c3.546,3.201,7.04,9.695,5.866,22.104c-3.1,32.803-8.877,100.033-10.8,137.082
		c-1.919,37.049-2.088,69.932,17.774,69.932c19.863,0,19.698-32.883,17.778-69.932c-1.922-37.049-7.699-104.279-10.802-137.082
		c-1.173-12.408,2.323-18.902,5.867-22.104c4.77-1.566,12.638-6.834,19.38-23.738c3.257-8.168,2.572-28.09,3.313-50.063
		C925.105,54.281,927.304,25.096,924.784,25.096z"/>
	<g>
		<path fill="#C8C8C8" d="M911.761,7.303c-2.121,0,1.8,76.07-2.934,82.941c-2.949,4.279-8.737,3.82-10.008,0.27
			c-1.269-3.555-5.505-83.211-7.623-83.211c-3.818,0-0.22,82.193-2.763,84.225c-2.543,2.029-5.077,1.523-5.077,1.523
			s-2.537,0.506-5.081-1.523c-2.543-2.031-4.452-84.225-8.266-84.225c-2.12,0-0.85,79.656-2.12,83.211
			c-1.273,3.551-7.058,4.01-10.006-0.27c-4.733-6.871-6.317-82.941-8.438-82.941c-2.122,0-7.219,110.135,1.688,132.469
			c6.737,16.904,14.609,22.172,19.378,23.736c3.547,3.201,7.04,9.697,5.866,22.105c-3.099,32.803-8.876,100.033-10.799,137.082
			c-1.919,37.049-2.088,69.932,17.773,69.932c19.864,0,19.698-32.883,17.779-69.932c-1.923-37.049-7.7-104.279-10.803-137.082
			c-1.172-12.408,2.323-18.904,5.868-22.105c4.769-1.564,12.638-6.832,19.38-23.736C924.484,117.438,913.879,7.303,911.761,7.303z"
			/>
		<path fill="#D7D7D7" d="M890.29,185.613c-0.686-7.25,0.229-12.471,1.81-16.205c-2.031-1.18-5.013-2.223-9.219-2.223
			c-3.672,0-6.473,0.799-8.538,1.781c1.697,3.766,2.707,9.111,1.994,16.646c-1.585,16.764-3.867,42.52-5.978,68.643
			c3.207-6.666,7.593-12.748,12.954-12.748c5.631,0,10.001,6.713,13.038,13.768C894.218,228.805,891.895,202.594,890.29,185.613z"/>
		<defs>
			<filter id="Adobe_OpacityMaskFilter_7_" filterUnits="userSpaceOnUse" x="860.078" y="160.952" width="46.101" height="9.219">
				<feColorMatrix  type="matrix" values="1 0 0 0 0  0 1 0 0 0  0 0 1 0 0  0 0 0 1 0"/>
			</filter>
		</defs>
		<mask maskUnits="userSpaceOnUse" x="860.078" y="160.952" width="46.101" height="9.219" id="SVGID_8_">
			<g filter="url(#Adobe_OpacityMaskFilter_7_)">
				<path fill="#FFFFFF" d="M914.514,7.303c-2.122,0-0.953,76.07-5.687,82.941c-2.949,4.279-8.737,3.82-10.008,0.27
					c-1.269-3.555-2.753-83.211-4.872-83.211c-3.816,0-2.971,82.193-5.514,84.225c-2.543,2.029-5.077,1.523-5.077,1.523
					s-2.537,0.506-5.081-1.523c-2.543-2.031-1.698-84.225-5.513-84.225c-2.122,0-3.603,79.656-4.873,83.211
					c-1.273,3.551-7.058,4.01-10.006-0.27c-4.733-6.871-3.564-82.941-5.687-82.941c-2.121,0-12.723,110.135-3.817,132.469
					c6.739,16.904,17.363,22.172,22.132,23.736c3.547,3.201,7.04,9.697,5.866,22.105c-3.099,32.803-8.876,100.033-10.799,137.082
					c-1.919,37.049-2.088,69.932,17.773,69.932c19.864,0,19.698-32.883,17.779-69.932c-1.923-37.049-7.7-104.279-10.803-137.082
					c-1.172-12.408,2.323-18.904,5.868-22.105c4.769-1.564,15.392-6.832,22.133-23.736C927.236,117.438,916.632,7.303,914.514,7.303
					z"/>
			</g>
		</mask>
		<path mask="url(#SVGID_8_)" fill="none" stroke="#B5B5B5" stroke-width="5.5054" stroke-miterlimit="10" d="M861.08,163.516
			c0,0,9.98,3.902,22.272,3.902c12.295,0,21.778-3.902,21.778-3.902"/>
		<g>
			<path fill="#B5B5B5" d="M883.353,382.586c-14.099,0-18.098-16.574-18.55-39.439c-0.484,27.895,2.459,49.48,18.55,49.48
				c16.095,0,19.039-21.586,18.555-49.48C901.456,366.012,897.453,382.586,883.353,382.586z"/>
		</g>
	</g>
	<g>
		<circle fill="#FFFFFF" cx="867.208" cy="116.709" r="7.604"/>
		<circle fill="#FFFFFF" cx="899.781" cy="116.709" r="7.604"/>
		<g>
			<circle fill="#3C3C3B" cx="867.183" cy="116.695" r="4.201"/>
			<circle fill="#FFFFFF" cx="868.779" cy="114.512" r="1.717"/>
		</g>
		<g>
			<circle fill="#3C3C3B" cx="899.755" cy="116.695" r="4.201"/>
			<circle fill="#FFFFFF" cx="901.486" cy="114.512" r="1.718"/>
		</g>
		
			<path fill="none" stroke="#3C3C3B" stroke-width="2.7527" stroke-linecap="round" stroke-linejoin="round" stroke-miterlimit="10" d="
			M883.045,119.406c0,0,9.132,2.256,5.712,7.779c-2.826,4.566-9.144,0-9.144,0"/>
		
			<path fill="none" stroke="#3C3C3B" stroke-width="2.7527" stroke-linecap="round" stroke-linejoin="round" stroke-miterlimit="10" d="
			M856.631,105.236c0,0,1.387-2.43,4.626-4.332c4.279-2.512,6.66-2.295,6.66-2.295"/>
		
			<path fill="none" stroke="#3C3C3B" stroke-width="2.7527" stroke-linecap="round" stroke-linejoin="round" stroke-miterlimit="10" d="
			M909.331,105.236c0,0-1.389-2.43-4.626-4.332c-4.279-2.512-6.66-2.295-6.66-2.295"/>
		
			<path fill="#3C3C3B" stroke="#3C3C3B" stroke-width="2.1554" stroke-linecap="round" stroke-linejoin="round" stroke-miterlimit="10" d="
			M877.139,148.48c0-4.533,3.134-11.152,7.002-11.152c3.867,0,7.003,6.619,7.003,11.152s-3.136,4.621-7.003,4.621
			C880.272,153.102,877.139,153.014,877.139,148.48z"/>
	</g>
</g>
<g>
	<path opacity="0.2" fill="#1D1D1B" d="M1044.785,25.096c-2.12,0-6.339,62.349-11.072,69.22c-2.949,4.279-8.737,3.819-10.008,0.269
		c-1.27-3.555,4.359-69.817,2.241-69.817c-3.818,0-10.084,68.801-12.627,70.831c-2.542,2.03-5.077,1.524-5.077,1.524
		s-2.537,0.506-5.081-1.524c-2.543-2.03,4.822-70.173,1.009-70.173c-2.12,0-10.124,65.604-11.395,69.159
		c-1.273,3.551-7.058,4.011-10.006-0.269c-4.734-6.871,3.175-67.903,1.054-67.903c-2.122,0-16.711,95.097-7.804,117.43
		c6.738,16.904,14.609,22.173,19.378,23.737c3.546,3.201,7.04,9.696,5.866,22.104c-3.1,32.802-8.877,100.033-10.799,137.082
		c-1.92,37.049-2.088,69.932,17.774,69.932c19.863,0,19.697-32.883,17.777-69.932c-1.923-37.049-7.699-104.279-10.802-137.082
		c-1.172-12.408,2.323-18.903,5.868-22.104c4.77-1.564,12.638-6.833,19.379-23.737c3.258-8.169,2.572-28.09,3.313-50.063
		C1045.105,54.282,1047.304,25.096,1044.785,25.096z"/>
	<g>
		<path fill="#C8C8C8" d="M1031.761,7.303c-2.121,0,1.8,76.071-2.934,82.941c-2.948,4.279-8.736,3.819-10.008,0.269
			c-1.269-3.554-5.505-83.21-7.623-83.21c-3.818,0-0.219,82.194-2.762,84.224c-2.543,2.03-5.077,1.524-5.077,1.524
			s-2.537,0.506-5.081-1.524c-2.544-2.029-4.452-84.224-8.267-84.224c-2.12,0-0.85,79.656-2.12,83.21
			c-1.272,3.551-7.057,4.011-10.005-0.269c-4.734-6.87-6.318-82.941-8.439-82.941s-7.218,110.136,1.688,132.469
			c6.738,16.903,14.61,22.172,19.378,23.736c3.547,3.201,7.041,9.696,5.867,22.105c-3.1,32.802-8.877,100.033-10.8,137.082
			c-1.919,37.049-2.088,69.93,17.774,69.93c19.863,0,19.697-32.881,17.778-69.93c-1.923-37.049-7.699-104.279-10.802-137.082
			c-1.172-12.409,2.322-18.904,5.868-22.105c4.769-1.564,12.638-6.833,19.379-23.736
			C1044.484,117.439,1033.879,7.303,1031.761,7.303z"/>
		<path fill="#D7D7D7" d="M1010.29,185.614c-0.686-7.25,0.229-12.471,1.81-16.205c-2.03-1.18-5.012-2.223-9.218-2.223
			c-3.673,0-6.474,0.798-8.538,1.782c1.696,3.764,2.707,9.109,1.994,16.646c-1.586,16.763-3.868,42.519-5.979,68.642
			c3.208-6.666,7.594-12.748,12.955-12.748c5.631,0,10,6.713,13.037,13.768C1014.218,228.805,1011.895,202.594,1010.29,185.614z"/>
		<defs>
			<filter id="Adobe_OpacityMaskFilter_8_" filterUnits="userSpaceOnUse" x="980.079" y="160.953" width="46.1" height="9.217">
				<feColorMatrix  type="matrix" values="1 0 0 0 0  0 1 0 0 0  0 0 1 0 0  0 0 0 1 0"/>
			</filter>
		</defs>
		<mask maskUnits="userSpaceOnUse" x="980.079" y="160.953" width="46.1" height="9.217" id="SVGID_9_">
			<g filter="url(#Adobe_OpacityMaskFilter_8_)">
				<path fill="#FFFFFF" d="M1034.514,7.303c-2.122,0-0.953,76.071-5.687,82.941c-2.948,4.279-8.736,3.819-10.008,0.269
					c-1.269-3.554-2.753-83.21-4.871-83.21c-3.817,0-2.971,82.194-5.514,84.224c-2.543,2.03-5.077,1.524-5.077,1.524
					s-2.537,0.506-5.081-1.524c-2.544-2.029-1.699-84.224-5.513-84.224c-2.122,0-3.604,79.656-4.874,83.21
					c-1.272,3.551-7.057,4.011-10.005-0.269c-4.734-6.87-3.565-82.941-5.687-82.941s-12.724,110.136-3.817,132.469
					c6.739,16.903,17.363,22.172,22.131,23.736c3.547,3.201,7.041,9.696,5.867,22.105c-3.1,32.802-8.877,100.033-10.8,137.082
					c-1.919,37.049-2.088,69.93,17.774,69.93c19.863,0,19.697-32.881,17.778-69.93c-1.923-37.049-7.699-104.279-10.802-137.082
					c-1.172-12.409,2.322-18.904,5.868-22.105c4.769-1.564,15.391-6.833,22.132-23.736
					C1047.236,117.439,1036.632,7.303,1034.514,7.303z"/>
			</g>
		</mask>
		<path mask="url(#SVGID_9_)" fill="none" stroke="#B5B5B5" stroke-width="5.5054" stroke-miterlimit="10" d="M981.081,163.517
			c0,0,9.979,3.9,22.272,3.9c12.294,0,21.778-3.9,21.778-3.9"/>
		<g>
			<path fill="#B5B5B5" d="M1003.354,382.586c-14.1,0-18.099-16.576-18.55-39.441c-0.484,27.896,2.459,49.48,18.55,49.48
				c16.094,0,19.038-21.584,18.555-49.48C1021.456,366.01,1017.453,382.586,1003.354,382.586z"/>
		</g>
	</g>
	<g>
		<circle fill="#FFFFFF" cx="987.209" cy="116.708" r="7.604"/>
		<circle fill="#FFFFFF" cx="1019.782" cy="116.708" r="7.604"/>
		<g>
			<circle fill="#3C3C3B" cx="987.183" cy="116.696" r="4.201"/>
			<circle fill="#FFFFFF" cx="988.779" cy="114.513" r="1.717"/>
		</g>
		<g>
			<circle fill="#3C3C3B" cx="1019.755" cy="116.696" r="4.201"/>
			<circle fill="#FFFFFF" cx="1021.486" cy="114.513" r="1.718"/>
		</g>
		
			<path fill="none" stroke="#3C3C3B" stroke-width="2.7527" stroke-linecap="round" stroke-linejoin="round" stroke-miterlimit="10" d="
			M1003.045,119.408c0,0,9.133,2.255,5.713,7.779c-2.827,4.566-9.145,0-9.145,0"/>
		
			<path fill="none" stroke="#3C3C3B" stroke-width="2.7527" stroke-linecap="round" stroke-linejoin="round" stroke-miterlimit="10" d="
			M976.631,107.679c0,0,1.388-2.43,4.626-4.331c4.279-2.513,6.66-2.297,6.66-2.297"/>
		
			<path fill="none" stroke="#3C3C3B" stroke-width="2.7527" stroke-linecap="round" stroke-linejoin="round" stroke-miterlimit="10" d="
			M1029.331,107.679c0,0-1.388-2.43-4.626-4.331c-4.279-2.513-6.66-2.297-6.66-2.297"/>
		<path fill="#C8C8C8" d="M976.252,117.984l20.001,5.357c0,0-5.909,4.407-11.791,2.831
			C978.578,124.596,976.252,117.984,976.252,117.984z"/>
		<path fill="#C8C8C8" d="M1011.113,122.947l20.185-4.62c0,0-3.161,6.659-9.098,8.019
			C1016.264,127.704,1011.113,122.947,1011.113,122.947z"/>
		
			<path fill="none" stroke="#3C3C3B" stroke-width="2.7527" stroke-linecap="round" stroke-linejoin="round" stroke-miterlimit="10" d="
			M992.235,146.473c1.232-2.337,5.33-6.493,11.905-6.493c6.576,0,10.675,4.156,11.906,6.493"/>
	</g>
</g>
<g>
	<path opacity="0.2" fill="#1D1D1B" d="M1164.714,25.42c-2.116,0-6.327,62.235-11.052,69.093c-2.943,4.271-8.721,3.813-9.99,0.269
		c-1.267-3.548,4.352-69.689,2.237-69.689c-3.811,0-10.064,68.675-12.603,70.701s-5.068,1.521-5.068,1.521s-2.532,0.505-5.071-1.521
		s4.813-70.045,1.006-70.045c-2.115,0-10.105,65.485-11.374,69.033c-1.271,3.544-7.044,4.003-9.986-0.269
		c-4.726-6.857,3.169-67.778,1.051-67.778c-2.117,0-16.68,94.923-7.789,117.215c6.726,16.873,14.583,22.132,19.343,23.693
		c3.539,3.195,7.027,9.679,5.855,22.064c-3.094,32.742-8.86,99.85-10.779,136.831c-1.916,36.98-2.084,69.803,17.742,69.803
		s19.661-32.822,17.745-69.803c-1.919-36.981-7.686-104.089-10.782-136.831c-1.17-12.386,2.318-18.869,5.857-22.064
		c4.761-1.562,12.614-6.82,19.344-23.693c3.251-8.153,2.567-28.039,3.306-49.971C1165.034,54.552,1167.229,25.42,1164.714,25.42z"/>
	<g>
		<path fill="#C8C8C8" d="M1151.714,7.659c-2.117,0,1.797,75.933-2.928,82.79c-2.944,4.271-8.721,3.813-9.99,0.269
			c-1.267-3.548-5.495-83.059-7.609-83.059c-3.812,0-0.218,82.044-2.756,84.07s-5.068,1.521-5.068,1.521s-2.533,0.505-5.071-1.521
			c-2.539-2.026-4.445-84.07-8.252-84.07c-2.116,0-0.848,79.511-2.116,83.059c-1.271,3.544-7.044,4.003-9.987-0.269
			c-4.725-6.857-6.306-82.79-8.424-82.79c-2.117,0-7.204,109.935,1.686,132.227c6.727,16.873,14.584,22.132,19.344,23.693
			c3.539,3.195,7.027,9.679,5.855,22.064c-3.094,32.742-8.86,99.85-10.779,136.831c-1.916,36.98-2.085,69.803,17.741,69.803
			c19.827,0,19.661-32.822,17.745-69.803c-1.919-36.981-7.685-104.089-10.781-136.831c-1.17-12.386,2.318-18.869,5.857-22.064
			c4.76-1.562,12.614-6.82,19.344-23.693C1164.413,117.594,1153.828,7.659,1151.714,7.659z"/>
		<path fill="#D7D7D7" d="M1130.282,185.644c-0.685-7.236,0.229-12.447,1.806-16.175c-2.026-1.178-5.002-2.219-9.2-2.219
			c-3.666,0-6.462,0.797-8.522,1.778c1.692,3.758,2.701,9.094,1.99,16.615c-1.583,16.732-3.861,42.442-5.967,68.517
			c3.201-6.653,7.58-12.724,12.931-12.724c5.62,0,9.981,6.7,13.014,13.742C1134.202,228.756,1131.884,202.594,1130.282,185.644z"/>
		<defs>
			<filter id="Adobe_OpacityMaskFilter_9_" filterUnits="userSpaceOnUse" x="1100.126" y="161.029" width="46.016" height="9.2">
				<feColorMatrix  type="matrix" values="1 0 0 0 0  0 1 0 0 0  0 0 1 0 0  0 0 0 1 0"/>
			</filter>
		</defs>
		<mask maskUnits="userSpaceOnUse" x="1100.126" y="161.029" width="46.016" height="9.2" id="SVGID_10_">
			<g filter="url(#Adobe_OpacityMaskFilter_9_)">
				<path fill="#FFFFFF" d="M1154.461,7.659c-2.117,0-0.95,75.933-5.675,82.79c-2.944,4.271-8.721,3.813-9.99,0.269
					c-1.267-3.548-2.747-83.059-4.862-83.059c-3.811,0-2.965,82.044-5.503,84.07s-5.068,1.521-5.068,1.521s-2.533,0.505-5.071-1.521
					c-2.539-2.026-1.696-84.07-5.504-84.07c-2.117,0-3.596,79.511-4.864,83.059c-1.271,3.544-7.044,4.003-9.987-0.269
					c-4.725-6.857-3.559-82.79-5.676-82.79s-12.7,109.935-3.811,132.227c6.728,16.873,17.332,22.132,22.092,23.693
					c3.539,3.195,7.027,9.679,5.855,22.064c-3.094,32.742-8.86,99.85-10.779,136.831c-1.916,36.98-2.085,69.803,17.741,69.803
					c19.827,0,19.661-32.822,17.745-69.803c-1.919-36.981-7.685-104.089-10.781-136.831c-1.17-12.386,2.318-18.869,5.857-22.064
					c4.76-1.562,15.362-6.82,22.092-23.693C1167.161,117.594,1156.575,7.659,1154.461,7.659z"/>
			</g>
		</mask>
		<path mask="url(#SVGID_10_)" fill="none" stroke="#B5B5B5" stroke-width="5.4953" stroke-miterlimit="10" d="M1101.126,163.588
			c0,0,9.962,3.894,22.232,3.894s21.738-3.894,21.738-3.894"/>
		<g>
			<path fill="#B5B5B5" d="M1123.358,382.256c-14.073,0-18.065-16.545-18.517-39.369c-0.483,27.845,2.455,49.391,18.517,49.391
				c16.064,0,19.004-21.546,18.521-49.391C1141.428,365.711,1137.433,382.256,1123.358,382.256z"/>
		</g>
	</g>
	<g>
		<circle fill="#FFFFFF" cx="1107.244" cy="116.865" r="7.589"/>
		<circle fill="#FFFFFF" cx="1139.757" cy="116.865" r="7.59"/>
		<g>
			<circle fill="#3C3C3B" cx="1107.217" cy="116.388" r="4.193"/>
			<circle fill="#FFFFFF" cx="1108.81" cy="114.208" r="1.714"/>
		</g>
		<g>
			<circle fill="#3C3C3B" cx="1139.73" cy="116.388" r="4.193"/>
			<circle fill="#FFFFFF" cx="1141.458" cy="114.208" r="1.714"/>
		</g>
		
			<path fill="none" stroke="#3C3C3B" stroke-width="2.7477" stroke-linecap="round" stroke-linejoin="round" stroke-miterlimit="10" d="
			M1123.05,119.559c0,0,9.117,2.251,5.702,7.766c-2.821,4.558-9.127,0-9.127,0"/>
		<polygon fill="#C8C8C8" points="1100.669,107.957 1117.575,117.139 1117.12,106.647 1100.926,104.66 		"/>
		<polygon fill="#C8C8C8" points="1145.715,107.529 1129.29,117.547 1129.219,107.046 1145.293,104.249 		"/>
		
			<path fill="none" stroke="#3C3C3B" stroke-width="2.7477" stroke-linecap="round" stroke-linejoin="round" stroke-miterlimit="10" d="
			M1099.654,107.826c0,0,5.437,3.062,8.669,4.961c4.271,2.508,6.647,3.916,6.647,3.916"/>
		
			<path fill="none" stroke="#3C3C3B" stroke-width="2.7477" stroke-linecap="round" stroke-linejoin="round" stroke-miterlimit="10" d="
			M1147.347,107.826c0,0-5.717,3.062-8.949,4.961c-4.271,2.508-6.647,3.916-6.647,3.916"/>
		
			<path fill="none" stroke="#3C3C3B" stroke-width="2.7477" stroke-linecap="round" stroke-linejoin="round" stroke-miterlimit="10" d="
			M1112.255,144.378c0,0,4.032-6.118,10.595-6.118c6.564,0,13.174,6.118,13.174,6.118"/>
	</g>
</g>
<g>
	<path opacity="0.2" fill="#1D1D1B" d="M1284.686,25.549c-2.115,0-6.323,62.189-11.044,69.042c-2.941,4.269-8.714,3.811-9.982,0.269
		c-1.266-3.545,4.349-69.639,2.235-69.639c-3.808,0-10.058,68.625-12.594,70.649s-5.064,1.521-5.064,1.521s-2.53,0.504-5.067-1.521
		s4.81-69.993,1.006-69.993c-2.114,0-10.099,65.438-11.366,68.982c-1.27,3.542-7.039,4-9.979-0.269
		c-4.722-6.853,3.167-67.729,1.051-67.729s-16.668,94.854-7.784,117.129c6.722,16.86,14.573,22.115,19.329,23.676
		c3.537,3.193,7.022,9.672,5.851,22.048c-3.091,32.718-8.854,99.777-10.771,136.73c-1.914,36.955-2.082,69.752,17.729,69.752
		c19.813,0,19.646-32.797,17.732-69.752c-1.918-36.953-7.68-104.012-10.774-136.73c-1.169-12.376,2.316-18.854,5.854-22.048
		c4.757-1.561,12.604-6.815,19.329-23.676c3.249-8.148,2.565-28.019,3.304-49.935C1285.006,54.66,1287.198,25.549,1284.686,25.549z"
		/>
	<g>
		<path fill="#C8C8C8" d="M1271.694,7.802c-2.115,0,1.796,75.876-2.926,82.729c-2.941,4.269-8.714,3.811-9.981,0.269
			c-1.267-3.545-5.491-82.997-7.604-82.997c-3.809,0-0.218,81.983-2.754,84.008c-2.536,2.025-5.064,1.521-5.064,1.521
			s-2.531,0.505-5.068-1.521c-2.537-2.024-4.44-84.008-8.245-84.008c-2.114,0-0.847,79.452-2.114,82.997
			c-1.27,3.542-7.039,4-9.98-0.269c-4.722-6.853-6.302-82.729-8.417-82.729c-2.116,0-7.199,109.854,1.685,132.129
			c6.721,16.86,14.572,22.115,19.328,23.676c3.537,3.193,7.022,9.672,5.852,22.049c-3.092,32.717-8.854,99.776-10.771,136.729
			c-1.915,36.955-2.083,69.752,17.729,69.752c19.813,0,19.647-32.797,17.732-69.752c-1.918-36.953-7.679-104.012-10.773-136.729
			c-1.169-12.377,2.316-18.855,5.853-22.049c4.757-1.561,12.605-6.815,19.329-23.676
			C1284.385,117.656,1273.808,7.802,1271.694,7.802z"/>
		<path fill="#D7D7D7" d="M1250.278,185.656c-0.684-7.231,0.229-12.438,1.806-16.163c-2.025-1.177-4.999-2.218-9.194-2.218
			c-3.663,0-6.456,0.797-8.516,1.777c1.691,3.755,2.699,9.087,1.988,16.604c-1.582,16.719-3.857,42.411-5.963,68.465
			c3.199-6.648,7.575-12.715,12.922-12.715c5.616,0,9.975,6.695,13.004,13.732C1254.196,228.736,1251.88,202.594,1250.278,185.656z"
			/>
		<defs>
			<filter id="Adobe_OpacityMaskFilter_10_" filterUnits="userSpaceOnUse" x="1220.145" y="161.058" width="45.983" height="9.194">
				<feColorMatrix  type="matrix" values="1 0 0 0 0  0 1 0 0 0  0 0 1 0 0  0 0 0 1 0"/>
			</filter>
		</defs>
		<mask maskUnits="userSpaceOnUse" x="1220.145" y="161.058" width="45.983" height="9.194" id="SVGID_11_">
			<g filter="url(#Adobe_OpacityMaskFilter_10_)">
				<path fill="#FFFFFF" d="M1274.44,7.802c-2.116,0-0.95,75.876-5.672,82.729c-2.941,4.269-8.714,3.811-9.981,0.269
					c-1.267-3.545-2.746-82.997-4.859-82.997c-3.808,0-2.963,81.983-5.499,84.008c-2.536,2.025-5.064,1.521-5.064,1.521
					s-2.531,0.505-5.068-1.521c-2.537-2.024-1.694-84.008-5.499-84.008c-2.115,0-3.593,79.452-4.86,82.997
					c-1.27,3.542-7.039,4-9.98-0.269c-4.722-6.853-3.556-82.729-5.672-82.729c-2.115,0-12.69,109.854-3.808,132.129
					c6.723,16.86,17.319,22.115,22.075,23.676c3.537,3.193,7.022,9.672,5.852,22.049c-3.092,32.717-8.854,99.776-10.771,136.729
					c-1.915,36.955-2.083,69.752,17.729,69.752c19.813,0,19.647-32.797,17.732-69.752c-1.918-36.953-7.679-104.012-10.773-136.729
					c-1.169-12.377,2.316-18.855,5.853-22.049c4.757-1.561,15.352-6.815,22.076-23.676
					C1287.131,117.656,1276.553,7.802,1274.44,7.802z"/>
			</g>
		</mask>
		<path mask="url(#SVGID_11_)" fill="none" stroke="#B5B5B5" stroke-width="5.4913" stroke-miterlimit="10" d="M1221.145,163.615
			c0,0,9.955,3.892,22.216,3.892c12.262,0,21.723-3.892,21.723-3.892"/>
		<g>
			<path fill="#B5B5B5" d="M1243.36,382.123c-14.063,0-18.052-16.533-18.503-39.34c-0.482,27.824,2.453,49.354,18.503,49.354
				c16.053,0,18.989-21.529,18.507-49.354C1261.416,365.59,1257.424,382.123,1243.36,382.123z"/>
		</g>
	</g>
	<g>
		<circle fill="#FFFFFF" cx="1227.257" cy="116.927" r="7.583"/>
		<circle fill="#FFFFFF" cx="1259.747" cy="116.927" r="7.584"/>
		<g>
			<circle fill="#3C3C3B" cx="1227.231" cy="116.45" r="4.189"/>
			<circle fill="#FFFFFF" cx="1228.823" cy="114.272" r="1.713"/>
		</g>
		<g>
			<circle fill="#3C3C3B" cx="1259.72" cy="116.45" r="4.19"/>
			<circle fill="#FFFFFF" cx="1261.446" cy="114.272" r="1.713"/>
		</g>
		
			<path fill="none" stroke="#3C3C3B" stroke-width="2.7457" stroke-linecap="round" stroke-linejoin="round" stroke-miterlimit="10" d="
			M1243.052,119.619c0,0,9.11,2.25,5.698,7.76c-2.819,4.555-9.121,0-9.121,0"/>
		<polygon fill="#C8C8C8" points="1220.688,108.025 1237.582,117.201 1237.126,106.716 1220.944,104.731 		"/>
		<polygon fill="#C8C8C8" points="1265.7,107.598 1249.287,117.609 1249.216,107.116 1265.278,104.321 		"/>
		
			<path fill="none" stroke="#3C3C3B" stroke-width="2.7457" stroke-linecap="round" stroke-linejoin="round" stroke-miterlimit="10" d="
			M1219.674,107.767c0,0,5.432,3.187,8.662,5.085c4.269,2.506,6.643,3.914,6.643,3.914"/>
		
			<path fill="none" stroke="#3C3C3B" stroke-width="2.7457" stroke-linecap="round" stroke-linejoin="round" stroke-miterlimit="10" d="
			M1267.331,107.767c0,0-5.712,3.187-8.942,5.085c-4.269,2.506-6.643,3.914-6.643,3.914"/>
		
			<path fill="#FFFFFF" stroke="#3C3C3B" stroke-width="2.7457" stroke-linecap="round" stroke-linejoin="round" stroke-miterlimit="10" d="
			M1263.159,135.585c0,0-4.419,17.242-19.021,17.242c-14.764,0-19.021-17.242-19.021-17.242s10.261,2.968,19.021,2.968
			S1263.159,135.585,1263.159,135.585z"/>
	</g>
</g>
<g>
	<path opacity="0.2" fill="#1D1D1B" d="M1404.686,25.55c-2.115,0-6.323,62.189-11.044,69.042c-2.941,4.269-8.714,3.811-9.982,0.269
		c-1.266-3.545,4.349-69.639,2.235-69.639c-3.808,0-10.058,68.625-12.594,70.649s-5.064,1.521-5.064,1.521s-2.53,0.504-5.067-1.521
		s4.81-69.993,1.006-69.993c-2.114,0-10.099,65.438-11.366,68.982c-1.27,3.542-7.039,4-9.979-0.269
		c-4.722-6.853,3.167-67.729,1.051-67.729s-16.668,94.853-7.784,117.129c6.722,16.86,14.573,22.115,19.329,23.676
		c3.537,3.193,7.022,9.672,5.851,22.048c-3.091,32.719-8.854,99.776-10.771,136.73c-1.914,36.953-2.082,69.751,17.729,69.751
		c19.813,0,19.646-32.798,17.732-69.751c-1.918-36.954-7.68-104.012-10.774-136.73c-1.169-12.376,2.316-18.854,5.854-22.048
		c4.756-1.561,12.604-6.815,19.329-23.676c3.249-8.148,2.565-28.019,3.304-49.935C1405.006,54.66,1407.198,25.55,1404.686,25.55z"/>
	<g>
		<path fill="#C8C8C8" d="M1391.694,7.803c-2.115,0,1.796,75.876-2.926,82.729c-2.941,4.269-8.714,3.811-9.981,0.269
			c-1.267-3.545-5.491-82.997-7.604-82.997c-3.808,0-0.218,81.983-2.754,84.008c-2.536,2.025-5.064,1.521-5.064,1.521
			s-2.531,0.505-5.068-1.521c-2.536-2.024-4.44-84.008-8.245-84.008c-2.114,0-0.847,79.452-2.114,82.997
			c-1.27,3.542-7.039,4-9.979-0.269c-4.723-6.853-6.302-82.729-8.418-82.729s-7.199,109.853,1.685,132.129
			c6.721,16.86,14.572,22.115,19.328,23.676c3.537,3.193,7.022,9.672,5.852,22.048c-3.092,32.719-8.854,99.776-10.771,136.73
			c-1.914,36.953-2.083,69.751,17.729,69.751c19.813,0,19.647-32.798,17.732-69.751c-1.917-36.954-7.679-104.012-10.773-136.73
			c-1.169-12.376,2.316-18.854,5.853-22.048c4.757-1.561,12.605-6.815,19.329-23.676
			C1404.385,117.655,1393.808,7.803,1391.694,7.803z"/>
		<path fill="#D7D7D7" d="M1370.278,185.655c-0.684-7.23,0.229-12.438,1.806-16.162c-2.025-1.177-4.999-2.218-9.194-2.218
			c-3.663,0-6.456,0.797-8.516,1.777c1.691,3.755,2.699,9.088,1.989,16.603c-1.583,16.721-3.858,42.411-5.964,68.467
			c3.199-6.649,7.575-12.715,12.922-12.715c5.616,0,9.975,6.695,13.004,13.732C1374.196,228.736,1371.88,202.594,1370.278,185.655z"
			/>
		<defs>
			<filter id="Adobe_OpacityMaskFilter_11_" filterUnits="userSpaceOnUse" x="1340.145" y="161.058" width="45.983" height="9.194">
				<feColorMatrix  type="matrix" values="1 0 0 0 0  0 1 0 0 0  0 0 1 0 0  0 0 0 1 0"/>
			</filter>
		</defs>
		<mask maskUnits="userSpaceOnUse" x="1340.145" y="161.058" width="45.983" height="9.194" id="SVGID_12_">
			<g filter="url(#Adobe_OpacityMaskFilter_11_)">
				<path fill="#FFFFFF" d="M1394.44,7.803c-2.116,0-0.95,75.876-5.672,82.729c-2.941,4.269-8.714,3.811-9.981,0.269
					c-1.267-3.545-2.746-82.997-4.859-82.997c-3.808,0-2.963,81.983-5.499,84.008c-2.536,2.025-5.064,1.521-5.064,1.521
					s-2.531,0.505-5.068-1.521c-2.536-2.024-1.694-84.008-5.499-84.008c-2.115,0-3.593,79.452-4.86,82.997
					c-1.27,3.542-7.039,4-9.979-0.269c-4.723-6.853-3.557-82.729-5.673-82.729c-2.114,0-12.69,109.853-3.808,132.129
					c6.723,16.86,17.319,22.115,22.075,23.676c3.537,3.193,7.022,9.672,5.852,22.048c-3.092,32.719-8.854,99.776-10.771,136.73
					c-1.914,36.953-2.083,69.751,17.729,69.751c19.813,0,19.647-32.798,17.732-69.751c-1.917-36.954-7.679-104.012-10.773-136.73
					c-1.169-12.376,2.316-18.854,5.853-22.048c4.757-1.561,15.352-6.815,22.076-23.676
					C1407.131,117.655,1396.553,7.803,1394.44,7.803z"/>
			</g>
		</mask>
		<path mask="url(#SVGID_12_)" fill="none" stroke="#B5B5B5" stroke-width="5.4913" stroke-miterlimit="10" d="M1341.145,163.615
			c0,0,9.955,3.892,22.216,3.892c12.262,0,21.723-3.892,21.723-3.892"/>
		<g>
			<path fill="#B5B5B5" d="M1363.36,382.123c-14.063,0-18.052-16.533-18.503-39.34c-0.482,27.824,2.453,49.354,18.503,49.354
				c16.053,0,18.989-21.529,18.507-49.354C1381.416,365.59,1377.424,382.123,1363.36,382.123z"/>
		</g>
	</g>
	<g>
		
			<path fill="none" stroke="#3C3C3B" stroke-width="2.7456" stroke-linecap="round" stroke-linejoin="round" stroke-miterlimit="10" d="
			M1363.053,119.619c0,0,9.109,2.25,5.697,7.76c-2.818,4.555-9.121,0-9.121,0"/>
		
			<path fill="none" stroke="#3C3C3B" stroke-width="2.7456" stroke-linecap="round" stroke-linejoin="round" stroke-miterlimit="10" d="
			M1342.098,105.956c0,0,3.009-0.804,6.238-1.752c4.269-1.251,6.643-1.954,6.643-1.954"/>
		
			<path fill="none" stroke="#3C3C3B" stroke-width="2.7456" stroke-linecap="round" stroke-linejoin="round" stroke-miterlimit="10" d="
			M1384.627,105.956c0,0-3.008-0.804-6.238-1.752c-4.269-1.251-6.643-1.954-6.643-1.954"/>
		
			<path fill="none" stroke="#3C3C3B" stroke-width="2.7456" stroke-linecap="round" stroke-linejoin="round" stroke-miterlimit="10" d="
			M1341.974,116.792c0,0,2.222,4.542,6.486,4.542s6.645-4.542,6.645-4.542"/>
		
			<path fill="none" stroke="#3C3C3B" stroke-width="2.7456" stroke-linecap="round" stroke-linejoin="round" stroke-miterlimit="10" d="
			M1371.62,116.792c0,0,2.223,4.542,6.487,4.542c4.264,0,6.644-4.542,6.644-4.542"/>
		
			<path fill="#3C3C3B" stroke="#3C3C3B" stroke-width="1.3518" stroke-linecap="round" stroke-linejoin="round" stroke-miterlimit="10" d="
			M1360.181,146.255c0-2.844,1.966-6.994,4.392-6.994s4.392,4.15,4.392,6.994c0,2.843-1.966,2.898-4.392,2.898
			S1360.181,149.098,1360.181,146.255z"/>
	</g>
</g>
</svg>
