<?xml version="1.0" encoding="utf-8"?>
<!-- Generator: Adobe Illustrator 16.0.0, SVG Export Plug-In . SVG Version: 6.00 Build 0)  -->
<!DOCTYPE svg PUBLIC "-//W3C//DTD SVG 1.1//EN" "http://www.w3.org/Graphics/SVG/1.1/DTD/svg11.dtd">
<svg version="1.1" id="Layer_1" xmlns="http://www.w3.org/2000/svg" xmlns:xlink="http://www.w3.org/1999/xlink" x="0px" y="0px"
	 width="1440px" height="400px" viewBox="0 0 1440 400" enable-background="new 0 0 1440 400" xml:space="preserve">
<g>
	<g opacity="0.2">
		<g>
			<path fill="#1D1D1B" d="M53.333,11.385c-18.609,0-36.468,9.289-36.905,72.935c-0.436,63.647,0.437,80.189,1.743,84.116
				c1.305,3.926,11.324,6.976,13.938,18.734c2.615,11.763-0.869,70.569-2.614,117.179c-1.741,46.611-10.02,92.349,27.879,92.349
				c20.474,0,23.958-18.732,23.958-32.236c0-13.501-10.02-104.106-11.324-133.73c-1.309-29.621-4.911-66.877,2.175-125.888
				C79.229,46.174,91.543,11.385,53.333,11.385z"/>
		</g>
		<g>
			<path opacity="0.3" d="M53.333,11.385c-18.609,0-36.468,9.289-36.905,72.935c-0.436,63.647,0.437,80.189,1.743,84.116
				c1.305,3.926,11.324,6.976,13.938,18.734c2.615,11.763-0.869,70.569-2.614,117.179c-1.741,46.611-10.02,92.349,27.879,92.349
				c20.474,0,23.958-18.732,23.958-32.236c0-13.501-10.02-104.106-11.324-133.73c-1.309-29.621-4.911-66.877,2.175-125.888
				C79.229,46.174,91.543,11.385,53.333,11.385z"/>
		</g>
	</g>
	<g>
		<g>
			<g>
				<g>
					<g>
						<g>
							<path fill="#C8C8C8" d="M47.687,7.302c-18.609,0-36.468,9.289-36.905,72.935c-0.436,63.647,0.437,80.19,1.743,84.116
								c1.305,3.926,11.324,6.976,13.938,18.734c2.615,11.763-0.869,70.569-2.614,117.179c-1.741,46.611-10.02,92.349,27.879,92.349
								c20.474,0,23.958-18.732,23.958-32.236c0-13.501-10.02-104.106-11.324-133.729c-1.309-29.621-4.911-66.877,2.175-125.889
								C73.583,42.09,85.896,7.302,47.687,7.302z"/>
						</g>
						<g>
							<path fill="#C8C8C8" d="M47.687,7.302c-18.609,0-36.468,9.289-36.905,72.935c-0.436,63.647,0.437,80.19,1.743,84.116
								c1.305,3.926,11.324,6.976,13.938,18.734c2.615,11.763-0.869,70.569-2.614,117.179c-1.741,46.611-10.02,92.349,27.879,92.349
								c20.474,0,23.958-18.732,23.958-32.236c0-13.501-10.02-104.106-11.324-133.729c-1.309-29.621-4.911-66.877,2.175-125.889
								C73.583,42.09,85.896,7.302,47.687,7.302z"/>
						</g>
					</g>
					<path fill="#D7D7D7" d="M10.763,83.123l54.26,31.554c-1.093,11.158-1.801,21.499-2.221,31.111l-52.128-30.313
						C10.655,106.417,10.685,95.709,10.763,83.123z"/>
					<path fill="#D7D7D7" d="M17.65,169.608c14.82,2.391,29.706,4.541,44.656,4.829c0.169,20.517,1.396,37.338,2.055,52.211
						c0.15,3.463,0.422,7.763,0.784,12.668c-4.04-9.552-10.765-17.589-21.968-17.589c-8.298,0-13.56,9.188-16.879,20.005
						c1.113-27.9,1.723-51.632,0.165-58.646C24.955,176.301,20.991,172.434,17.65,169.608z"/>
					<path fill="#D7D7D7" d="M70.139,74.181c-0.642,4.46-1.307,9.106-1.971,13.954L12.061,55.508
						c0.565-5.288,1.318-9.979,2.218-14.194L70.139,74.181z"/>
					<path fill="#D7D7D7" d="M18.57,80.237c-0.44,63.647,0.437,80.19,1.742,84.116c0.243,0.736,0.796,1.44,1.546,2.178
						c-2.406-0.248-4.962,0.022-7.391,0.361c-0.944-0.871-1.656-1.685-1.942-2.54c-1.306-3.926-2.179-20.469-1.743-84.116
						C11.219,16.591,29.077,7.302,47.687,7.302c1.384,0,2.685,0.059,3.941,0.151C34.476,8.85,18.974,20.991,18.57,80.237z"/>
				</g>
				<g>
					<path fill="#B5B5B5" d="M51.728,381.57c17.713,0,22.706-14.02,23.731-26.547c0.146,2.33,0.226,4.152,0.226,5.354
						c0,13.504-3.484,32.236-23.958,32.236c-26.651,0-30.459-22.627-29.771-52.259C22.631,364.38,28.503,381.57,51.728,381.57z"/>
				</g>
			</g>
			<defs>
				<filter id="Adobe_OpacityMaskFilter" filterUnits="userSpaceOnUse" x="11.824" y="165.181" width="59.684" height="10.597">
					<feColorMatrix  type="matrix" values="1 0 0 0 0  0 1 0 0 0  0 0 1 0 0  0 0 0 1 0"/>
				</filter>
			</defs>
			<mask maskUnits="userSpaceOnUse" x="11.824" y="165.181" width="59.684" height="10.597" id="SVGID_1_">
				<g filter="url(#Adobe_OpacityMaskFilter)">
					<path fill="#FFFFFF" d="M47.687,7.302c-18.609,0-36.468,9.289-36.905,72.935c-0.436,63.647,0.437,80.19,1.743,84.116
						c1.305,3.926,11.324,6.976,13.938,18.734c2.615,11.763-0.869,70.569-2.614,117.179c-1.741,46.611-10.02,92.349,27.879,92.349
						c20.474,0,23.958-18.732,23.958-32.236c0-13.501-10.02-104.106-11.324-133.729c-1.309-29.621-4.911-66.877,2.175-125.889
						C73.583,42.09,85.896,7.302,47.687,7.302z"/>
				</g>
			</mask>
			
				<line mask="url(#SVGID_1_)" fill="none" stroke="#B5B5B5" stroke-width="5.5223" stroke-miterlimit="10" x1="71.271" y1="173.027" x2="12.061" y2="167.932"/>
		</g>
		<g>
			<g>
				<circle fill="#FFFFFF" cx="22.094" cy="116.934" r="7.627"/>
				<circle fill="#FFFFFF" cx="54.767" cy="116.934" r="7.627"/>
				
					<path fill="none" stroke="#3C3C3B" stroke-width="2.7611" stroke-linecap="round" stroke-linejoin="round" stroke-miterlimit="10" d="
					M38.75,118.449c0,0-9.161,2.262-5.73,7.803c2.835,4.58,9.172,0,9.172,0"/>
				
					<path fill="#FFFFFF" stroke="#3C3C3B" stroke-width="2.9276" stroke-linecap="round" stroke-linejoin="round" stroke-miterlimit="10" d="
					M59.44,135.911c0,0-3.428,19.667-19.774,19.667c-17.33,0-20.629-19.667-20.629-19.667S29.828,139,38.906,139
					C48.122,139,59.44,135.911,59.44,135.911z"/>
				
					<path fill="none" stroke="#3C3C3B" stroke-width="2.7611" stroke-linecap="round" stroke-linejoin="round" stroke-miterlimit="10" d="
					M12.821,103.494c-0.457,0.399,3.553-5.009,12.434-2.954"/>
				
					<path fill="none" stroke="#3C3C3B" stroke-width="2.7611" stroke-linecap="round" stroke-linejoin="round" stroke-miterlimit="10" d="
					M64.741,103.336c0.479,0.479-3.783-5.111-12.554-2.639"/>
				<g>
					<circle fill="#3C3C3B" cx="22.094" cy="117.245" r="4.213"/>
					<circle fill="#FFFFFF" cx="23.695" cy="115.055" r="1.723"/>
				</g>
				<g>
					<circle fill="#3C3C3B" cx="54.767" cy="117.245" r="4.213"/>
					<circle fill="#FFFFFF" cx="56.503" cy="115.055" r="1.723"/>
				</g>
			</g>
		</g>
	</g>
</g>
<g>
	<g opacity="0.2">
		<g>
			<path fill="#1D1D1B" d="M173.333,11.384c-18.609,0-36.468,9.289-36.905,72.936c-0.436,63.647,0.437,80.19,1.743,84.116
				c1.305,3.926,11.324,6.976,13.938,18.735c2.615,11.763-0.869,70.569-2.614,117.179c-1.741,46.612-10.02,92.35,27.879,92.35
				c20.474,0,23.958-18.732,23.958-32.237c0-13.5-10.02-104.106-11.323-133.73c-1.309-29.621-4.912-66.877,2.175-125.889
				C199.229,46.173,211.543,11.384,173.333,11.384z"/>
		</g>
		<g>
			<path opacity="0.3" d="M173.333,11.384c-18.609,0-36.468,9.289-36.905,72.936c-0.436,63.647,0.437,80.19,1.743,84.116
				c1.305,3.926,11.324,6.976,13.938,18.735c2.615,11.763-0.869,70.569-2.614,117.179c-1.741,46.612-10.02,92.35,27.879,92.35
				c20.474,0,23.958-18.732,23.958-32.237c0-13.5-10.02-104.106-11.323-133.73c-1.309-29.621-4.912-66.877,2.175-125.889
				C199.229,46.173,211.543,11.384,173.333,11.384z"/>
		</g>
	</g>
	<g>
		<g>
			<g>
				<g>
					<g>
						<g>
							<path fill="#C8C8C8" d="M167.687,7.301c-18.609,0-36.468,9.289-36.905,72.936c-0.437,63.647,0.437,80.19,1.743,84.116
								c1.305,3.926,11.324,6.976,13.938,18.735c2.615,11.763-0.868,70.569-2.613,117.18c-1.741,46.611-10.02,92.35,27.879,92.35
								c20.474,0,23.958-18.733,23.958-32.237c0-13.501-10.02-104.106-11.324-133.73c-1.309-29.621-4.911-66.877,2.175-125.889
								C193.583,42.09,205.897,7.301,167.687,7.301z"/>
						</g>
						<g>
							<path fill="#C8C8C8" d="M167.687,7.301c-18.609,0-36.468,9.289-36.905,72.936c-0.437,63.647,0.437,80.19,1.743,84.116
								c1.305,3.926,11.324,6.976,13.938,18.735c2.615,11.763-0.868,70.569-2.613,117.18c-1.741,46.611-10.02,92.35,27.879,92.35
								c20.474,0,23.958-18.733,23.958-32.237c0-13.501-10.02-104.106-11.324-133.73c-1.309-29.621-4.911-66.877,2.175-125.889
								C193.583,42.09,205.897,7.301,167.687,7.301z"/>
						</g>
					</g>
					<path fill="#D7D7D7" d="M130.763,83.122l54.26,31.554c-1.093,11.158-1.801,21.499-2.221,31.111l-52.128-30.313
						C130.655,106.417,130.685,95.708,130.763,83.122z"/>
					<path fill="#D7D7D7" d="M137.65,169.607c14.82,2.392,29.707,4.542,44.656,4.83c0.169,20.517,1.396,37.338,2.055,52.211
						c0.15,3.463,0.422,7.763,0.784,12.668c-4.04-9.552-10.765-17.589-21.968-17.589c-8.298,0-13.56,9.188-16.879,20.005
						c1.113-27.9,1.723-51.632,0.164-58.646C144.955,176.301,140.991,172.434,137.65,169.607z"/>
					<path fill="#D7D7D7" d="M190.139,74.181c-0.642,4.46-1.307,9.106-1.971,13.954l-56.106-32.626
						c0.565-5.288,1.318-9.98,2.218-14.194L190.139,74.181z"/>
					<path fill="#D7D7D7" d="M138.569,80.236c-0.44,63.647,0.438,80.19,1.742,84.116c0.242,0.736,0.796,1.44,1.545,2.179
						c-2.405-0.248-4.962,0.022-7.391,0.361c-0.944-0.871-1.657-1.685-1.942-2.54c-1.306-3.926-2.179-20.468-1.743-84.116
						c0.437-63.646,18.295-72.936,36.905-72.936c1.384,0,2.685,0.059,3.941,0.151C154.476,8.848,138.974,20.99,138.569,80.236z"/>
				</g>
				<g>
					<path fill="#B5B5B5" d="M171.728,381.571c17.713,0,22.706-14.02,23.732-26.547c0.145,2.33,0.226,4.151,0.226,5.354
						c0,13.504-3.484,32.237-23.958,32.237c-26.651,0-30.459-22.629-29.771-52.261C142.631,364.381,148.503,381.571,171.728,381.571
						z"/>
				</g>
			</g>
			<defs>
				<filter id="Adobe_OpacityMaskFilter_1_" filterUnits="userSpaceOnUse" x="131.826" y="165.181" width="59.683" height="10.597">
					<feColorMatrix  type="matrix" values="1 0 0 0 0  0 1 0 0 0  0 0 1 0 0  0 0 0 1 0"/>
				</filter>
			</defs>
			<mask maskUnits="userSpaceOnUse" x="131.826" y="165.181" width="59.683" height="10.597" id="SVGID_2_">
				<g filter="url(#Adobe_OpacityMaskFilter_1_)">
					<path fill="#FFFFFF" d="M167.687,7.301c-18.609,0-36.468,9.289-36.905,72.936c-0.437,63.647,0.437,80.19,1.743,84.116
						c1.305,3.926,11.324,6.976,13.938,18.735c2.615,11.763-0.868,70.569-2.613,117.18c-1.741,46.611-10.02,92.35,27.879,92.35
						c20.474,0,23.958-18.733,23.958-32.237c0-13.501-10.02-104.106-11.324-133.73c-1.309-29.621-4.911-66.877,2.175-125.889
						C193.583,42.09,205.897,7.301,167.687,7.301z"/>
				</g>
			</mask>
			
				<line mask="url(#SVGID_2_)" fill="none" stroke="#B5B5B5" stroke-width="5.5223" stroke-miterlimit="10" x1="191.271" y1="173.027" x2="132.063" y2="167.932"/>
		</g>
		<g>
			<circle fill="#FFFFFF" cx="174.636" cy="116.997" r="7.626"/>
			<circle fill="#FFFFFF" cx="141.963" cy="116.997" r="7.626"/>
			<circle fill="#3C3C3B" cx="174.636" cy="116.997" r="4.213"/>
			<circle fill="#3C3C3B" cx="141.963" cy="116.997" r="4.213"/>
			
				<path fill="none" stroke="#3C3C3B" stroke-width="2.7612" stroke-linecap="round" stroke-linejoin="round" stroke-miterlimit="10" d="
				M158.75,118.449c0,0-9.161,2.262-5.73,7.804c2.836,4.58,9.172,0,9.172,0"/>
			
				<path fill="#FFFFFF" stroke="#3C3C3B" stroke-width="2.7612" stroke-linecap="round" stroke-linejoin="round" stroke-miterlimit="10" d="
				M141.951,137.064c0,0,2.557,9.645,15.055,9.645c12.352,0,16.03-9.645,16.03-9.645H141.951z"/>
			
				<path fill="none" stroke="#3C3C3B" stroke-width="2.7612" stroke-linecap="round" stroke-linejoin="round" stroke-miterlimit="10" d="
				M183.854,108.583c0,0-1.871-4.77-9.219-4.77"/>
			
				<path fill="none" stroke="#3C3C3B" stroke-width="2.7612" stroke-linecap="round" stroke-linejoin="round" stroke-miterlimit="10" d="
				M131.831,108.583c0,0,1.871-4.77,9.219-4.77"/>
			<circle fill="#FFFFFF" cx="173.035" cy="114.807" r="1.723"/>
			<circle fill="#FFFFFF" cx="140.228" cy="114.807" r="1.723"/>
		</g>
	</g>
</g>
<g>
	<g opacity="0.2">
		<g>
			<path fill="#1D1D1B" d="M293.881,11.386c-18.609,0-36.467,9.29-36.905,72.936c-0.436,63.646,0.438,80.189,1.743,84.115
				s11.324,6.976,13.938,18.734c2.615,11.763-0.869,70.568-2.614,117.178c-1.741,46.611-10.019,92.349,27.879,92.349
				c20.474,0,23.958-18.732,23.958-32.236c0-13.501-10.02-104.105-11.324-133.729c-1.309-29.62-4.911-66.876,2.175-125.888
				C319.777,46.175,332.091,11.386,293.881,11.386z"/>
		</g>
		<g>
			<path opacity="0.3" d="M293.881,11.386c-18.609,0-36.467,9.29-36.905,72.936c-0.436,63.646,0.438,80.189,1.743,84.115
				s11.324,6.976,13.938,18.734c2.615,11.763-0.869,70.568-2.614,117.178c-1.741,46.611-10.019,92.349,27.879,92.349
				c20.474,0,23.958-18.732,23.958-32.236c0-13.501-10.02-104.105-11.324-133.729c-1.309-29.62-4.911-66.876,2.175-125.888
				C319.777,46.175,332.091,11.386,293.881,11.386z"/>
		</g>
	</g>
	<g>
		<g>
			<g>
				<g>
					<g>
						<g>
							<path fill="#C8C8C8" d="M288.235,7.303c-18.609,0-36.468,9.289-36.905,72.936c-0.436,63.646,0.437,80.189,1.743,84.115
								c1.305,3.926,11.324,6.976,13.938,18.734c2.615,11.762-0.869,70.568-2.614,117.178c-1.741,46.611-10.02,92.349,27.879,92.349
								c20.474,0,23.957-18.732,23.957-32.236c0-13.501-10.019-104.106-11.323-133.73c-1.309-29.619-4.911-66.875,2.175-125.887
								C314.131,42.091,326.445,7.303,288.235,7.303z"/>
						</g>
						<g>
							<path fill="#C8C8C8" d="M288.235,7.303c-18.609,0-36.468,9.289-36.905,72.936c-0.436,63.646,0.437,80.189,1.743,84.115
								c1.305,3.926,11.324,6.976,13.938,18.734c2.615,11.762-0.869,70.568-2.614,117.178c-1.741,46.611-10.02,92.349,27.879,92.349
								c20.474,0,23.957-18.732,23.957-32.236c0-13.501-10.019-104.106-11.323-133.73c-1.309-29.619-4.911-66.875,2.175-125.887
								C314.131,42.091,326.445,7.303,288.235,7.303z"/>
						</g>
					</g>
					<path fill="#D7D7D7" d="M251.312,83.124l54.26,31.554c-1.093,11.158-1.801,21.499-2.221,31.111l-52.128-30.313
						C251.204,106.418,251.234,95.709,251.312,83.124z"/>
					<path fill="#D7D7D7" d="M258.199,169.608c14.82,2.392,29.706,4.541,44.656,4.829c0.169,20.517,1.396,37.338,2.055,52.21
						c0.15,3.463,0.422,7.764,0.784,12.669c-4.04-9.552-10.765-17.589-21.968-17.589c-8.298,0-13.56,9.188-16.879,20.005
						c1.113-27.9,1.723-51.631,0.165-58.645C265.503,176.301,261.54,172.435,258.199,169.608z"/>
					<path fill="#D7D7D7" d="M310.687,74.182c-0.642,4.46-1.307,9.106-1.972,13.954l-56.106-32.626
						c0.565-5.288,1.318-9.979,2.218-14.194L310.687,74.182z"/>
					<path fill="#D7D7D7" d="M259.118,80.238c-0.44,63.646,0.437,80.189,1.742,84.115c0.243,0.736,0.796,1.44,1.546,2.178
						c-2.406-0.248-4.962,0.022-7.391,0.361c-0.944-0.87-1.656-1.685-1.942-2.54c-1.306-3.926-2.179-20.468-1.743-84.115
						c0.437-63.646,18.296-72.936,36.905-72.936c1.384,0,2.685,0.06,3.941,0.151C275.024,8.851,259.522,20.992,259.118,80.238z"/>
				</g>
				<g>
					<path fill="#B5B5B5" d="M292.276,381.569c17.713,0,22.706-14.019,23.731-26.547c0.145,2.331,0.226,4.152,0.226,5.355
						c0,13.504-3.483,32.236-23.957,32.236c-26.651,0-30.459-22.628-29.771-52.26C263.179,364.38,269.052,381.569,292.276,381.569z"
						/>
				</g>
			</g>
			<defs>
				<filter id="Adobe_OpacityMaskFilter_2_" filterUnits="userSpaceOnUse" x="251.918" y="165.142" width="60.138" height="10.636">
					<feColorMatrix  type="matrix" values="1 0 0 0 0  0 1 0 0 0  0 0 1 0 0  0 0 0 1 0"/>
				</filter>
			</defs>
			<mask maskUnits="userSpaceOnUse" x="251.918" y="165.142" width="60.138" height="10.636" id="SVGID_3_">
				<g filter="url(#Adobe_OpacityMaskFilter_2_)">
					<path fill="#FFFFFF" d="M288.235,7.303c-18.609,0-36.468,9.289-36.905,72.936c-0.436,63.646,0.437,80.189,1.743,84.115
						c1.305,3.926,11.324,6.976,13.938,18.734c2.615,11.762-0.869,70.568-2.614,117.178c-1.741,46.611-10.02,92.349,27.879,92.349
						c20.474,0,23.957-18.732,23.957-32.236c0-13.501-10.019-104.106-11.323-133.73c-1.309-29.619-4.911-66.875,2.175-125.887
						C314.131,42.091,326.445,7.303,288.235,7.303z"/>
				</g>
			</mask>
			
				<line mask="url(#SVGID_3_)" fill="none" stroke="#B5B5B5" stroke-width="5.5223" stroke-miterlimit="10" x1="311.819" y1="173.027" x2="252.155" y2="167.893"/>
		</g>
		<g>
			
				<path fill="none" stroke="#3C3C3B" stroke-width="2.7611" stroke-linecap="round" stroke-linejoin="round" stroke-miterlimit="10" d="
				M279.299,118.45c0,0-9.162,2.263-5.73,7.804c2.836,4.58,9.172,0,9.172,0"/>
		</g>
		<g>
			
				<path fill="#FFFFFF" stroke="#3C3C3B" stroke-width="2.7611" stroke-linecap="round" stroke-linejoin="round" stroke-miterlimit="10" d="
				M295.57,140.481c0,0-2.669,11.732-15.394,11.732c-13.491,0-16.06-11.732-16.06-11.732H295.57z"/>
			
				<path fill="none" stroke="#3C3C3B" stroke-width="2.7611" stroke-linecap="round" stroke-linejoin="round" stroke-miterlimit="10" d="
				M250.687,104.809c-0.334,0.508,2.091-5.773,11.197-6.155"/>
			
				<path fill="none" stroke="#3C3C3B" stroke-width="2.7611" stroke-linecap="round" stroke-linejoin="round" stroke-miterlimit="10" d="
				M306.899,104.579c0.354,0.494-2.326-5.683-11.442-5.692"/>
			<g>
				<defs>
					<path id="SVGID_4_" d="M274.216,120.093c0,0-6.021-15.255-12.484-15.255c-6.806,0-11.612,15.255-11.612,15.255"/>
				</defs>
				<clipPath id="SVGID_5_">
					<use xlink:href="#SVGID_4_"  overflow="visible"/>
				</clipPath>
				<g clip-path="url(#SVGID_5_)">
					<circle fill="#FFFFFF" cx="262.612" cy="117.062" r="7.627"/>
					<g>
						<circle fill="#3C3C3B" cx="262.612" cy="117.373" r="4.213"/>
						<circle fill="#FFFFFF" cx="264.213" cy="115.183" r="1.723"/>
					</g>
				</g>
			</g>
			<g>
				<defs>
					<path id="SVGID_6_" d="M307.345,120.093c0,0-6.02-15.255-12.483-15.255c-6.807,0-11.613,15.255-11.613,15.255"/>
				</defs>
				<clipPath id="SVGID_7_">
					<use xlink:href="#SVGID_6_"  overflow="visible"/>
				</clipPath>
				<g clip-path="url(#SVGID_7_)">
					<circle fill="#FFFFFF" cx="295.285" cy="117.062" r="7.628"/>
					<g>
						<circle fill="#3C3C3B" cx="295.284" cy="117.373" r="4.213"/>
						<circle fill="#FFFFFF" cx="297.021" cy="115.183" r="1.723"/>
					</g>
				</g>
			</g>
		</g>
	</g>
</g>
<g>
	<g opacity="0.2">
		<g>
			<path fill="#1D1D1B" d="M413.333,11.386c-18.609,0-36.468,9.289-36.905,72.936c-0.436,63.646,0.437,80.189,1.743,84.115
				c1.305,3.926,11.324,6.976,13.938,18.734c2.615,11.763-0.869,70.568-2.614,117.178c-1.741,46.611-10.02,92.349,27.879,92.349
				c20.474,0,23.958-18.732,23.958-32.236c0-13.501-10.02-104.105-11.324-133.729c-1.309-29.621-4.911-66.876,2.175-125.888
				C439.229,46.175,451.543,11.386,413.333,11.386z"/>
		</g>
		<g>
			<path opacity="0.3" d="M413.333,11.386c-18.609,0-36.468,9.289-36.905,72.936c-0.436,63.646,0.437,80.189,1.743,84.115
				c1.305,3.926,11.324,6.976,13.938,18.734c2.615,11.763-0.869,70.568-2.614,117.178c-1.741,46.611-10.02,92.349,27.879,92.349
				c20.474,0,23.958-18.732,23.958-32.236c0-13.501-10.02-104.105-11.324-133.729c-1.309-29.621-4.911-66.876,2.175-125.888
				C439.229,46.175,451.543,11.386,413.333,11.386z"/>
		</g>
	</g>
	<g>
		<g>
			<g>
				<g>
					<g>
						<g>
							<path fill="#C8C8C8" d="M407.687,7.303c-18.609,0-36.468,9.289-36.905,72.935c-0.436,63.647,0.437,80.189,1.743,84.115
								c1.305,3.926,11.324,6.976,13.938,18.734c2.615,11.763-0.869,70.568-2.614,117.179c-1.741,46.611-10.02,92.349,27.879,92.349
								c20.474,0,23.957-18.732,23.957-32.236c0-13.501-10.019-104.106-11.323-133.73c-1.309-29.62-4.911-66.876,2.175-125.888
								C433.583,42.091,445.896,7.303,407.687,7.303z"/>
						</g>
						<g>
							<path fill="#C8C8C8" d="M407.687,7.303c-18.609,0-36.468,9.289-36.905,72.935c-0.436,63.647,0.437,80.189,1.743,84.115
								c1.305,3.926,11.324,6.976,13.938,18.734c2.615,11.763-0.869,70.568-2.614,117.179c-1.741,46.611-10.02,92.349,27.879,92.349
								c20.474,0,23.957-18.732,23.957-32.236c0-13.501-10.019-104.106-11.323-133.73c-1.309-29.62-4.911-66.876,2.175-125.888
								C433.583,42.091,445.896,7.303,407.687,7.303z"/>
						</g>
					</g>
					<path fill="#D7D7D7" d="M370.764,83.123l54.26,31.554c-1.093,11.157-1.801,21.498-2.221,31.111l-52.128-30.313
						C370.655,106.418,370.686,95.71,370.764,83.123z"/>
					<path fill="#D7D7D7" d="M377.65,169.608c14.82,2.392,29.706,4.541,44.656,4.829c0.169,20.517,1.396,37.338,2.055,52.21
						c0.15,3.463,0.422,7.764,0.784,12.669c-4.04-9.552-10.765-17.589-21.968-17.589c-8.298,0-13.56,9.188-16.879,20.005
						c1.113-27.9,1.723-51.632,0.165-58.646C384.955,176.301,380.991,172.434,377.65,169.608z"/>
					<path fill="#D7D7D7" d="M430.139,74.182c-0.642,4.46-1.307,9.106-1.972,13.954l-56.106-32.627
						c0.565-5.287,1.318-9.979,2.218-14.194L430.139,74.182z"/>
					<path fill="#D7D7D7" d="M378.57,80.237c-0.44,63.647,0.437,80.189,1.742,84.115c0.243,0.736,0.796,1.44,1.546,2.179
						c-2.405-0.248-4.962,0.022-7.391,0.361c-0.944-0.87-1.656-1.685-1.942-2.54c-1.306-3.926-2.179-20.468-1.743-84.115
						c0.437-63.646,18.295-72.935,36.905-72.935c1.384,0,2.685,0.059,3.941,0.15C394.476,8.851,378.974,20.992,378.57,80.237z"/>
				</g>
				<g>
					<path fill="#B5B5B5" d="M411.728,381.57c17.713,0,22.706-14.02,23.731-26.547c0.146,2.33,0.226,4.151,0.226,5.354
						c0,13.504-3.483,32.236-23.957,32.236c-26.651,0-30.459-22.628-29.771-52.26C382.631,364.38,388.503,381.57,411.728,381.57z"/>
				</g>
			</g>
			<defs>
				<filter id="Adobe_OpacityMaskFilter_3_" filterUnits="userSpaceOnUse" x="371.824" y="165.181" width="59.684" height="10.598">
					<feColorMatrix  type="matrix" values="1 0 0 0 0  0 1 0 0 0  0 0 1 0 0  0 0 0 1 0"/>
				</filter>
			</defs>
			<mask maskUnits="userSpaceOnUse" x="371.824" y="165.181" width="59.684" height="10.598" id="SVGID_8_">
				<g filter="url(#Adobe_OpacityMaskFilter_3_)">
					<path fill="#FFFFFF" d="M407.687,7.303c-18.609,0-36.468,9.289-36.905,72.935c-0.436,63.647,0.437,80.189,1.743,84.115
						c1.305,3.926,11.324,6.976,13.938,18.734c2.615,11.763-0.869,70.568-2.614,117.179c-1.741,46.611-10.02,92.349,27.879,92.349
						c20.474,0,23.957-18.732,23.957-32.236c0-13.501-10.019-104.106-11.323-133.73c-1.309-29.62-4.911-66.876,2.175-125.888
						C433.583,42.091,445.896,7.303,407.687,7.303z"/>
				</g>
			</mask>
			
				<line mask="url(#SVGID_8_)" fill="none" stroke="#B5B5B5" stroke-width="5.5223" stroke-miterlimit="10" x1="431.271" y1="173.027" x2="372.061" y2="167.932"/>
		</g>
		<g>
			
				<path fill="none" stroke="#3C3C3B" stroke-width="2.7611" stroke-linecap="round" stroke-linejoin="round" stroke-miterlimit="10" d="
				M418.907,134.197c0,0-3.347,16.459-19.304,16.459c-16.918,0-20.139-16.459-20.139-16.459"/>
			
				<path fill="none" stroke="#3C3C3B" stroke-width="2.7611" stroke-linecap="round" stroke-linejoin="round" stroke-miterlimit="10" d="
				M372.374,107.396c-0.352,0.495,2.294-5.696,11.409-5.756"/>
			
				<path fill="none" stroke="#3C3C3B" stroke-width="2.7611" stroke-linecap="round" stroke-linejoin="round" stroke-miterlimit="10" d="
				M423.775,107.396c0.352,0.495-2.294-5.696-11.409-5.756"/>
			<g>
				<defs>
					<path id="SVGID_9_" d="M402.258,121.178c0,0,7.041-4.283,13.368-2.967c6.664,1.386,7.762,7.875,7.762,7.875l3.165-15.522
						l-14.924-5.308L402.258,121.178"/>
				</defs>
				<clipPath id="SVGID_10_">
					<use xlink:href="#SVGID_9_"  overflow="visible"/>
				</clipPath>
				<g clip-path="url(#SVGID_10_)">
					<circle fill="#FFFFFF" cx="414.627" cy="116.989" r="7.627"/>
					<g>
						<circle fill="#3C3C3B" cx="414.626" cy="115.667" r="4.213"/>
						<circle fill="#FFFFFF" cx="416.362" cy="113.478" r="1.723"/>
					</g>
				</g>
			</g>
			
				<path fill="none" stroke="#3C3C3B" stroke-width="2.7611" stroke-linecap="round" stroke-linejoin="round" stroke-miterlimit="10" d="
				M398.751,118.45c0,0-9.162,2.263-5.73,7.804c2.835,4.579,9.172,0,9.172,0"/>
			<g>
				<defs>
					<path id="SVGID_11_" d="M394.201,120.475c0,0-6.1-4.19-12.673-2.428c-6.243,1.673-10.601,8.667-10.601,8.667l1.134-14.959
						l16.516-7.223L394.201,120.475z"/>
				</defs>
				<clipPath id="SVGID_12_">
					<use xlink:href="#SVGID_11_"  overflow="visible"/>
				</clipPath>
				<g clip-path="url(#SVGID_12_)">
					<circle fill="#FFFFFF" cx="381.954" cy="116.989" r="7.626"/>
					<g>
						<circle fill="#3C3C3B" cx="381.954" cy="115.667" r="4.213"/>
						<circle fill="#FFFFFF" cx="383.554" cy="113.478" r="1.723"/>
					</g>
				</g>
			</g>
		</g>
	</g>
</g>
<g>
	<g opacity="0.2">
		<g>
			<path fill="#1D1D1B" d="M533.333,11.386c-18.609,0-36.468,9.289-36.905,72.936c-0.436,63.646,0.437,80.189,1.743,84.115
				c1.305,3.926,11.324,6.976,13.938,18.734c2.615,11.763-0.869,70.568-2.614,117.178c-1.741,46.611-10.02,92.349,27.879,92.349
				c20.474,0,23.957-18.732,23.957-32.236c0-13.501-10.019-104.105-11.323-133.729c-1.309-29.621-4.911-66.876,2.175-125.888
				C559.229,46.175,571.543,11.386,533.333,11.386z"/>
		</g>
		<g>
			<path opacity="0.3" d="M533.333,11.386c-18.609,0-36.468,9.289-36.905,72.936c-0.436,63.646,0.437,80.189,1.743,84.115
				c1.305,3.926,11.324,6.976,13.938,18.734c2.615,11.763-0.869,70.568-2.614,117.178c-1.741,46.611-10.02,92.349,27.879,92.349
				c20.474,0,23.957-18.732,23.957-32.236c0-13.501-10.019-104.105-11.323-133.729c-1.309-29.621-4.911-66.876,2.175-125.888
				C559.229,46.175,571.543,11.386,533.333,11.386z"/>
		</g>
	</g>
	<g>
		<g>
			<g>
				<g>
					<g>
						<g>
							<path fill="#C8C8C8" d="M527.687,7.303c-18.609,0-36.468,9.289-36.905,72.935c-0.436,63.647,0.437,80.189,1.743,84.115
								c1.305,3.926,11.324,6.976,13.938,18.734c2.615,11.763-0.869,70.568-2.614,117.179c-1.741,46.611-10.02,92.349,27.879,92.349
								c20.474,0,23.957-18.732,23.957-32.236c0-13.501-10.02-104.106-11.323-133.73c-1.309-29.62-4.911-66.876,2.175-125.888
								C553.583,42.091,565.897,7.303,527.687,7.303z"/>
						</g>
						<g>
							<path fill="#C8C8C8" d="M527.687,7.303c-18.609,0-36.468,9.289-36.905,72.935c-0.436,63.647,0.437,80.189,1.743,84.115
								c1.305,3.926,11.324,6.976,13.938,18.734c2.615,11.763-0.869,70.568-2.614,117.179c-1.741,46.611-10.02,92.349,27.879,92.349
								c20.474,0,23.957-18.732,23.957-32.236c0-13.501-10.02-104.106-11.323-133.73c-1.309-29.62-4.911-66.876,2.175-125.888
								C553.583,42.091,565.897,7.303,527.687,7.303z"/>
						</g>
					</g>
					<path fill="#D7D7D7" d="M490.764,83.123l54.26,31.554c-1.093,11.157-1.801,21.498-2.221,31.111l-52.128-30.313
						C490.655,106.418,490.686,95.71,490.764,83.123z"/>
					<path fill="#D7D7D7" d="M497.651,169.608c14.82,2.392,29.706,4.541,44.656,4.829c0.169,20.517,1.396,37.338,2.055,52.21
						c0.15,3.463,0.422,7.764,0.784,12.669c-4.04-9.552-10.765-17.589-21.968-17.589c-8.298,0-13.56,9.188-16.879,20.005
						c1.113-27.9,1.723-51.632,0.165-58.646C504.956,176.301,500.992,172.434,497.651,169.608z"/>
					<path fill="#D7D7D7" d="M550.139,74.182c-0.642,4.46-1.307,9.106-1.972,13.954l-56.106-32.627
						c0.565-5.287,1.318-9.979,2.218-14.194L550.139,74.182z"/>
					<path fill="#D7D7D7" d="M498.57,80.237c-0.44,63.647,0.437,80.189,1.742,84.115c0.243,0.736,0.796,1.44,1.546,2.179
						c-2.406-0.248-4.962,0.022-7.391,0.361c-0.944-0.87-1.656-1.685-1.942-2.54c-1.306-3.926-2.179-20.468-1.743-84.115
						c0.437-63.646,18.295-72.935,36.905-72.935c1.384,0,2.685,0.059,3.941,0.15C514.477,8.851,498.975,20.992,498.57,80.237z"/>
				</g>
				<g>
					<path fill="#B5B5B5" d="M531.728,381.57c17.713,0,22.706-14.02,23.731-26.547c0.145,2.33,0.226,4.151,0.226,5.354
						c0,13.504-3.483,32.236-23.957,32.236c-26.651,0-30.459-22.628-29.771-52.26C502.631,364.38,508.503,381.57,531.728,381.57z"/>
				</g>
			</g>
			<defs>
				<filter id="Adobe_OpacityMaskFilter_4_" filterUnits="userSpaceOnUse" x="490.432" y="165.062" width="61.077" height="10.717">
					<feColorMatrix  type="matrix" values="1 0 0 0 0  0 1 0 0 0  0 0 1 0 0  0 0 0 1 0"/>
				</filter>
			</defs>
			<mask maskUnits="userSpaceOnUse" x="490.432" y="165.062" width="61.077" height="10.717" id="SVGID_13_">
				<g filter="url(#Adobe_OpacityMaskFilter_4_)">
					<path fill="#FFFFFF" d="M527.687,7.303c-18.609,0-36.468,9.289-36.905,72.935c-0.436,63.647,0.437,80.189,1.743,84.115
						c1.305,3.926,11.324,6.976,13.938,18.734c2.615,11.763-0.869,70.568-2.614,117.179c-1.741,46.611-10.02,92.349,27.879,92.349
						c20.474,0,23.957-18.732,23.957-32.236c0-13.501-10.02-104.106-11.323-133.73c-1.309-29.62-4.911-66.876,2.175-125.888
						C553.583,42.091,565.897,7.303,527.687,7.303z"/>
				</g>
			</mask>
			
				<line mask="url(#SVGID_13_)" fill="none" stroke="#B5B5B5" stroke-width="5.5223" stroke-miterlimit="10" x1="551.271" y1="173.027" x2="490.668" y2="167.813"/>
		</g>
		<g>
			<circle fill="#FFFFFF" cx="534.636" cy="116.998" r="7.626"/>
			<circle fill="#FFFFFF" cx="501.963" cy="116.998" r="7.626"/>
			
				<path fill="none" stroke="#3C3C3B" stroke-width="2.7611" stroke-linecap="round" stroke-linejoin="round" stroke-miterlimit="10" d="
				M518.751,118.449c0,0-9.161,2.263-5.73,7.804c2.836,4.58,9.172,0,9.172,0"/>
			
				<path fill="none" stroke="#3C3C3B" stroke-width="2.7611" stroke-linecap="round" stroke-linejoin="round" stroke-miterlimit="10" d="
				M506.759,144.298c0,0,2.831-2.411,10.247-2.411c6.171,0,10.003,2.411,10.003,2.411"/>
			
				<path fill="none" stroke="#3C3C3B" stroke-width="2.7611" stroke-linecap="round" stroke-linejoin="round" stroke-miterlimit="10" d="
				M543.854,102.05c0,0-1.87-4.77-9.219-4.77"/>
			
				<path fill="none" stroke="#3C3C3B" stroke-width="2.7611" stroke-linecap="round" stroke-linejoin="round" stroke-miterlimit="10" d="
				M491.832,102.05c0,0,1.871-4.77,9.219-4.77"/>
			<g>
				<circle fill="#3C3C3B" cx="533.003" cy="114.548" r="4.213"/>
				<circle fill="#FFFFFF" cx="531.402" cy="112.358" r="1.723"/>
			</g>
			<g>
				<circle fill="#3C3C3B" cx="500.33" cy="114.548" r="4.213"/>
				<circle fill="#FFFFFF" cx="498.595" cy="112.358" r="1.723"/>
			</g>
		</g>
	</g>
</g>
<g>
	<g opacity="0.2">
		<g>
			<path fill="#1D1D1B" d="M653.333,11.386c-18.608,0-36.467,9.289-36.904,72.936c-0.436,63.646,0.438,80.189,1.743,84.115
				c1.305,3.926,11.324,6.976,13.938,18.734c2.615,11.763-0.868,70.568-2.613,117.178c-1.741,46.611-10.02,92.349,27.879,92.349
				c20.474,0,23.958-18.732,23.958-32.236c0-13.501-10.02-104.105-11.323-133.729c-1.31-29.621-4.912-66.876,2.175-125.888
				C679.229,46.175,691.544,11.386,653.333,11.386z"/>
		</g>
		<g>
			<path opacity="0.3" d="M653.333,11.386c-18.608,0-36.467,9.289-36.904,72.936c-0.436,63.646,0.438,80.189,1.743,84.115
				c1.305,3.926,11.324,6.976,13.938,18.734c2.615,11.763-0.868,70.568-2.613,117.178c-1.741,46.611-10.02,92.349,27.879,92.349
				c20.474,0,23.958-18.732,23.958-32.236c0-13.501-10.02-104.105-11.323-133.729c-1.31-29.621-4.912-66.876,2.175-125.888
				C679.229,46.175,691.544,11.386,653.333,11.386z"/>
		</g>
	</g>
	<g>
		<g>
			<g>
				<g>
					<g>
						<g>
							<path fill="#C8C8C8" d="M647.686,7.303c-18.608,0-36.467,9.289-36.904,72.935c-0.437,63.647,0.438,80.189,1.743,84.115
								c1.305,3.926,11.324,6.976,13.938,18.734c2.615,11.763-0.868,70.568-2.613,117.179c-1.741,46.611-10.02,92.349,27.878,92.349
								c20.475,0,23.958-18.732,23.958-32.236c0-13.501-10.02-104.106-11.323-133.73c-1.31-29.62-4.913-66.876,2.175-125.888
								C673.583,42.091,685.897,7.303,647.686,7.303z"/>
						</g>
						<g>
							<path fill="#C8C8C8" d="M647.686,7.303c-18.608,0-36.467,9.289-36.904,72.935c-0.437,63.647,0.438,80.189,1.743,84.115
								c1.305,3.926,11.324,6.976,13.938,18.734c2.615,11.763-0.868,70.568-2.613,117.179c-1.741,46.611-10.02,92.349,27.878,92.349
								c20.475,0,23.958-18.732,23.958-32.236c0-13.501-10.02-104.106-11.323-133.73c-1.31-29.62-4.913-66.876,2.175-125.888
								C673.583,42.091,685.897,7.303,647.686,7.303z"/>
						</g>
					</g>
					<path fill="#D7D7D7" d="M610.763,83.123l54.26,31.554c-1.093,11.157-1.801,21.498-2.221,31.111l-52.128-30.313
						C610.655,106.418,610.685,95.71,610.763,83.123z"/>
					<path fill="#D7D7D7" d="M617.65,169.608c14.82,2.392,29.706,4.541,44.657,4.829c0.169,20.517,1.396,37.338,2.056,52.21
						c0.149,3.463,0.422,7.764,0.783,12.669c-4.039-9.552-10.764-17.589-21.968-17.589c-8.298,0-13.56,9.188-16.879,20.005
						c1.113-27.9,1.723-51.632,0.164-58.646C624.955,176.301,620.991,172.434,617.65,169.608z"/>
					<path fill="#D7D7D7" d="M670.14,74.182c-0.643,4.46-1.308,9.106-1.972,13.954l-56.107-32.627
						c0.565-5.287,1.318-9.979,2.218-14.194L670.14,74.182z"/>
					<path fill="#D7D7D7" d="M618.57,80.237c-0.44,63.647,0.438,80.189,1.742,84.115c0.242,0.736,0.796,1.44,1.545,2.179
						c-2.405-0.248-4.962,0.022-7.391,0.361c-0.944-0.87-1.656-1.685-1.941-2.54c-1.306-3.926-2.18-20.468-1.743-84.115
						c0.438-63.646,18.296-72.935,36.904-72.935c1.385,0,2.685,0.059,3.941,0.15C634.476,8.851,618.974,20.992,618.57,80.237z"/>
				</g>
				<g>
					<path fill="#B5B5B5" d="M651.727,381.57c17.714,0,22.707-14.02,23.733-26.547c0.145,2.33,0.226,4.151,0.226,5.354
						c0,13.504-3.483,32.236-23.958,32.236c-26.65,0-30.458-22.628-29.771-52.26C622.631,364.38,628.503,381.57,651.727,381.57z"/>
				</g>
			</g>
			<defs>
				<filter id="Adobe_OpacityMaskFilter_5_" filterUnits="userSpaceOnUse" x="611.651" y="165.166" width="59.856" height="10.612">
					<feColorMatrix  type="matrix" values="1 0 0 0 0  0 1 0 0 0  0 0 1 0 0  0 0 0 1 0"/>
				</filter>
			</defs>
			<mask maskUnits="userSpaceOnUse" x="611.651" y="165.166" width="59.856" height="10.612" id="SVGID_14_">
				<g filter="url(#Adobe_OpacityMaskFilter_5_)">
					<path fill="#FFFFFF" d="M647.686,7.303c-18.608,0-36.467,9.289-36.904,72.935c-0.437,63.647,0.438,80.189,1.743,84.115
						c1.305,3.926,11.324,6.976,13.938,18.734c2.615,11.763-0.868,70.568-2.613,117.179c-1.741,46.611-10.02,92.349,27.878,92.349
						c20.475,0,23.958-18.732,23.958-32.236c0-13.501-10.02-104.106-11.323-133.73c-1.31-29.62-4.913-66.876,2.175-125.888
						C673.583,42.091,685.897,7.303,647.686,7.303z"/>
				</g>
			</mask>
			
				<line mask="url(#SVGID_14_)" fill="none" stroke="#B5B5B5" stroke-width="5.5223" stroke-miterlimit="10" x1="671.271" y1="173.027" x2="611.888" y2="167.917"/>
		</g>
		<g>
			<circle fill="#FFFFFF" cx="654.636" cy="116.998" r="7.627"/>
			<circle fill="#FFFFFF" cx="621.963" cy="116.998" r="7.626"/>
			<circle fill="#3C3C3B" cx="654.636" cy="116.998" r="4.213"/>
			<circle fill="#3C3C3B" cx="621.963" cy="116.998" r="4.213"/>
			
				<path fill="none" stroke="#3C3C3B" stroke-width="2.7611" stroke-linecap="round" stroke-linejoin="round" stroke-miterlimit="10" d="
				M638.75,118.449c0,0-9.161,2.263-5.73,7.804c2.837,4.58,9.173,0,9.173,0"/>
			
				<path fill="none" stroke="#3C3C3B" stroke-width="2.7611" stroke-linecap="round" stroke-linejoin="round" stroke-miterlimit="10" d="
				M663.854,97.967c0,0-1.87-4.771-9.219-4.771"/>
			
				<path fill="none" stroke="#3C3C3B" stroke-width="2.7611" stroke-linecap="round" stroke-linejoin="round" stroke-miterlimit="10" d="
				M611.832,97.967c0,0,1.871-4.771,9.219-4.771"/>
			<circle fill="#FFFFFF" cx="653.035" cy="114.808" r="1.723"/>
			<circle fill="#FFFFFF" cx="620.229" cy="114.808" r="1.723"/>
			
				<ellipse fill="#3C3C3B" stroke="#3C3C3B" stroke-width="1.668" stroke-linecap="round" stroke-linejoin="round" stroke-miterlimit="10" cx="636.673" cy="144.444" rx="3.633" ry="4.214"/>
		</g>
	</g>
</g>
<g>
	<g opacity="0.2">
		<g>
			<path fill="#1D1D1B" d="M773.339,11.246c-18.622,0-36.493,9.296-36.931,72.989c-0.438,63.694,0.438,80.249,1.743,84.177
				s11.333,6.981,13.948,18.749c2.617,11.771-0.869,70.62-2.615,117.264c-1.743,46.646-10.027,92.416,27.899,92.416
				c20.488,0,23.974-18.746,23.974-32.26c0-13.511-10.025-104.183-11.331-133.828c-1.31-29.642-4.915-66.925,2.177-125.98
				C799.254,46.061,811.577,11.246,773.339,11.246z"/>
		</g>
		<g>
			<path opacity="0.3" d="M773.339,11.246c-18.622,0-36.493,9.296-36.931,72.989c-0.438,63.694,0.438,80.249,1.743,84.177
				s11.333,6.981,13.948,18.749c2.617,11.771-0.869,70.62-2.615,117.264c-1.743,46.646-10.027,92.416,27.899,92.416
				c20.488,0,23.974-18.746,23.974-32.26c0-13.511-10.025-104.183-11.331-133.828c-1.31-29.642-4.915-66.925,2.177-125.98
				C799.254,46.061,811.577,11.246,773.339,11.246z"/>
		</g>
	</g>
	<g>
		<g>
			<g>
				<g>
					<g>
						<g>
							<path fill="#C8C8C8" d="M767.688,7.159c-18.622,0-36.494,9.296-36.932,72.989c-0.437,63.694,0.438,80.249,1.743,84.177
								s11.334,6.981,13.948,18.749c2.618,11.771-0.868,70.62-2.614,117.264c-1.743,46.646-10.028,92.417,27.899,92.417
								c20.487,0,23.974-18.747,23.974-32.261c0-13.511-10.026-104.182-11.332-133.828c-1.309-29.641-4.914-66.925,2.178-125.979
								C793.604,41.974,805.927,7.159,767.688,7.159z"/>
						</g>
						<g>
							<path fill="#C8C8C8" d="M767.688,7.159c-18.622,0-36.494,9.296-36.932,72.989c-0.437,63.694,0.438,80.249,1.743,84.177
								s11.334,6.981,13.948,18.749c2.618,11.771-0.868,70.62-2.614,117.264c-1.743,46.646-10.028,92.417,27.899,92.417
								c20.487,0,23.974-18.747,23.974-32.261c0-13.511-10.026-104.182-11.332-133.828c-1.309-29.641-4.914-66.925,2.178-125.979
								C793.604,41.974,805.927,7.159,767.688,7.159z"/>
						</g>
					</g>
					<path fill="#D7D7D7" d="M730.738,83.036l54.3,31.577c-1.094,11.166-1.803,21.514-2.223,31.134l-52.167-30.336
						C730.63,106.348,730.66,95.632,730.738,83.036z"/>
					<path fill="#D7D7D7" d="M737.631,169.585c14.831,2.393,29.727,4.544,44.688,4.833c0.169,20.533,1.396,37.366,2.056,52.249
						c0.15,3.467,0.423,7.77,0.786,12.678c-4.044-9.559-10.773-17.602-21.985-17.602c-8.304,0-13.57,9.194-16.892,20.02
						c1.114-27.92,1.724-51.669,0.164-58.688C744.94,176.282,740.974,172.413,737.631,169.585z"/>
					<path fill="#D7D7D7" d="M790.157,74.088c-0.642,4.464-1.308,9.113-1.974,13.964l-56.146-32.65
						c0.565-5.292,1.319-9.987,2.219-14.204L790.157,74.088z"/>
					<path fill="#D7D7D7" d="M738.55,80.148c-0.44,63.694,0.438,80.249,1.743,84.177c0.243,0.737,0.797,1.441,1.547,2.18
						c-2.407-0.248-4.966,0.022-7.396,0.361c-0.944-0.871-1.658-1.686-1.944-2.542c-1.306-3.929-2.18-20.483-1.743-84.177
						c0.438-63.693,18.31-72.989,36.932-72.989c1.385,0,2.687,0.06,3.944,0.152C754.468,8.709,738.956,20.86,738.55,80.148z"/>
				</g>
				<g>
					<path fill="#B5B5B5" d="M771.733,381.702c17.726,0,22.723-14.029,23.749-26.566c0.145,2.332,0.225,4.155,0.225,5.358
						c0,13.514-3.486,32.261-23.974,32.261c-26.672,0-30.482-22.645-29.794-52.299C742.614,364.499,748.491,381.702,771.733,381.702
						z"/>
				</g>
			</g>
			<defs>
				<filter id="Adobe_OpacityMaskFilter_6_" filterUnits="userSpaceOnUse" x="730.406" y="165.035" width="61.121" height="10.725">
					<feColorMatrix  type="matrix" values="1 0 0 0 0  0 1 0 0 0  0 0 1 0 0  0 0 0 1 0"/>
				</filter>
			</defs>
			<mask maskUnits="userSpaceOnUse" x="730.406" y="165.035" width="61.121" height="10.725" id="SVGID_15_">
				<g filter="url(#Adobe_OpacityMaskFilter_6_)">
					<path fill="#FFFFFF" d="M767.688,7.159c-18.622,0-36.494,9.296-36.932,72.989c-0.437,63.694,0.438,80.249,1.743,84.177
						s11.334,6.981,13.948,18.749c2.618,11.771-0.868,70.62-2.614,117.264c-1.743,46.646-10.028,92.417,27.899,92.417
						c20.487,0,23.974-18.747,23.974-32.261c0-13.511-10.026-104.182-11.332-133.828c-1.309-29.641-4.914-66.925,2.178-125.979
						C793.604,41.974,805.927,7.159,767.688,7.159z"/>
				</g>
			</mask>
			
				<line mask="url(#SVGID_15_)" fill="none" stroke="#B5B5B5" stroke-width="5.5263" stroke-miterlimit="10" x1="791.29" y1="173.006" x2="730.644" y2="167.788"/>
		</g>
		<g>
			<circle fill="#FFFFFF" cx="774.643" cy="116.936" r="7.631"/>
			<circle fill="#FFFFFF" cx="741.946" cy="116.936" r="7.633"/>
			<circle fill="#3C3C3B" cx="774.643" cy="116.936" r="4.215"/>
			<circle fill="#3C3C3B" cx="741.946" cy="116.936" r="4.217"/>
			
				<path fill="none" stroke="#3C3C3B" stroke-width="2.7632" stroke-linecap="round" stroke-linejoin="round" stroke-miterlimit="10" d="
				M758.746,118.389c0,0-9.167,2.264-5.733,7.809c2.838,4.583,9.178,0,9.178,0"/>
			
				<path fill="none" stroke="#3C3C3B" stroke-width="2.7632" stroke-linecap="round" stroke-linejoin="round" stroke-miterlimit="10" d="
				M783.868,97.891c0,0-1.871-4.774-9.226-4.774"/>
			
				<path fill="none" stroke="#3C3C3B" stroke-width="2.7632" stroke-linecap="round" stroke-linejoin="round" stroke-miterlimit="10" d="
				M731.808,97.891c0,0,1.872-4.774,9.225-4.774"/>
			<circle fill="#FFFFFF" cx="773.041" cy="114.745" r="1.725"/>
			<circle fill="#FFFFFF" cx="740.21" cy="114.745" r="1.724"/>
			
				<path fill="none" stroke="#3C3C3B" stroke-width="2.7632" stroke-linecap="round" stroke-linejoin="round" stroke-miterlimit="10" d="
				M770.596,140.396c0,0-0.98,1.37-3.608,1.37c-2.627,0-2.985-2.451-6.168-2.451c-4.156,0-4.772,2.451-7.309,2.451
				c-3.045,0-4.604-2.451-7.362-2.451s-3.443,1.839-4.501,2.451"/>
		</g>
	</g>
</g>
<g>
	<g opacity="0.2">
		<g>
			<path fill="#1D1D1B" d="M893.332,11.386c-18.607,0-36.465,9.29-36.902,72.936c-0.438,63.646,0.438,80.189,1.742,84.115
				s11.324,6.976,13.938,18.734c2.615,11.763-0.869,70.568-2.613,117.178c-1.742,46.611-10.02,92.349,27.879,92.349
				c20.473,0,23.957-18.732,23.957-32.236c0-13.501-10.02-104.105-11.324-133.729c-1.309-29.619-4.912-66.876,2.176-125.888
				C919.229,46.176,931.543,11.386,893.332,11.386z"/>
		</g>
		<g>
			<path opacity="0.3" d="M893.332,11.386c-18.607,0-36.465,9.29-36.902,72.936c-0.438,63.646,0.438,80.189,1.742,84.115
				s11.324,6.976,13.938,18.734c2.615,11.763-0.869,70.568-2.613,117.178c-1.742,46.611-10.02,92.349,27.879,92.349
				c20.473,0,23.957-18.732,23.957-32.236c0-13.501-10.02-104.105-11.324-133.729c-1.309-29.619-4.912-66.876,2.176-125.888
				C919.229,46.176,931.543,11.386,893.332,11.386z"/>
		</g>
	</g>
	<g>
		<g>
			<g>
				<g>
					<g>
						<g>
							<path fill="#C8C8C8" d="M887.686,7.303c-18.607,0-36.465,9.289-36.902,72.936s0.438,80.189,1.742,84.115
								s11.324,6.976,13.938,18.734c2.615,11.763-0.869,70.568-2.613,117.178c-1.742,46.611-10.02,92.349,27.879,92.349
								c20.473,0,23.957-18.732,23.957-32.236c0-13.501-10.02-104.106-11.324-133.729c-1.309-29.619-4.912-66.876,2.176-125.888
								C913.582,42.092,925.896,7.303,887.686,7.303z"/>
						</g>
						<g>
							<path fill="#C8C8C8" d="M887.686,7.303c-18.607,0-36.465,9.289-36.902,72.936s0.438,80.189,1.742,84.115
								s11.324,6.976,13.938,18.734c2.615,11.763-0.869,70.568-2.613,117.178c-1.742,46.611-10.02,92.349,27.879,92.349
								c20.473,0,23.957-18.732,23.957-32.236c0-13.501-10.02-104.106-11.324-133.729c-1.309-29.619-4.912-66.876,2.176-125.888
								C913.582,42.092,925.896,7.303,887.686,7.303z"/>
						</g>
					</g>
					<path fill="#D7D7D7" d="M850.764,83.123l54.26,31.555c-1.092,11.157-1.801,21.498-2.221,31.111l-52.129-30.314
						C850.654,106.418,850.686,95.71,850.764,83.123z"/>
					<path fill="#D7D7D7" d="M857.65,169.608c14.82,2.392,29.705,4.541,44.656,4.829c0.17,20.518,1.396,37.338,2.055,52.211
						c0.15,3.463,0.422,7.763,0.785,12.668c-4.041-9.552-10.766-17.589-21.969-17.589c-8.299,0-13.561,9.188-16.879,20.005
						c1.113-27.899,1.723-51.631,0.164-58.645C864.955,176.301,860.99,172.435,857.65,169.608z"/>
					<path fill="#D7D7D7" d="M910.139,74.182c-0.641,4.461-1.307,9.106-1.971,13.954L852.063,55.51
						c0.564-5.288,1.316-9.979,2.217-14.194L910.139,74.182z"/>
					<path fill="#D7D7D7" d="M858.57,80.238c-0.441,63.646,0.438,80.189,1.742,84.115c0.242,0.736,0.795,1.439,1.545,2.178
						c-2.406-0.247-4.963,0.022-7.391,0.361c-0.943-0.87-1.656-1.685-1.941-2.539c-1.305-3.926-2.18-20.469-1.742-84.115
						s18.295-72.936,36.902-72.936c1.385,0,2.686,0.06,3.941,0.151C874.477,8.851,858.975,20.992,858.57,80.238z"/>
				</g>
				<g>
					<path fill="#B5B5B5" d="M891.729,381.57c17.713,0,22.705-14.02,23.73-26.547c0.146,2.33,0.227,4.151,0.227,5.354
						c0,13.504-3.484,32.236-23.957,32.236c-26.652,0-30.459-22.628-29.771-52.26C862.631,364.38,868.504,381.57,891.729,381.57z"/>
				</g>
			</g>
			<defs>
				<filter id="Adobe_OpacityMaskFilter_7_" filterUnits="userSpaceOnUse" x="850.432" y="165.062" width="61.076" height="10.717">
					<feColorMatrix  type="matrix" values="1 0 0 0 0  0 1 0 0 0  0 0 1 0 0  0 0 0 1 0"/>
				</filter>
			</defs>
			<mask maskUnits="userSpaceOnUse" x="850.432" y="165.062" width="61.076" height="10.717" id="SVGID_16_">
				<g filter="url(#Adobe_OpacityMaskFilter_7_)">
					<path fill="#FFFFFF" d="M887.686,7.303c-18.607,0-36.465,9.289-36.902,72.936s0.438,80.189,1.742,84.115
						s11.324,6.976,13.938,18.734c2.615,11.763-0.869,70.568-2.613,117.178c-1.742,46.611-10.02,92.349,27.879,92.349
						c20.473,0,23.957-18.732,23.957-32.236c0-13.501-10.02-104.106-11.324-133.729c-1.309-29.619-4.912-66.876,2.176-125.888
						C913.582,42.092,925.896,7.303,887.686,7.303z"/>
				</g>
			</mask>
			
				<line mask="url(#SVGID_16_)" fill="none" stroke="#B5B5B5" stroke-width="5.5223" stroke-miterlimit="10" x1="911.271" y1="173.027" x2="850.668" y2="167.813"/>
		</g>
		<g>
			<circle fill="#FFFFFF" cx="894.636" cy="116.998" r="7.626"/>
			<circle fill="#FFFFFF" cx="861.963" cy="116.998" r="7.627"/>
			<circle fill="#3C3C3B" cx="894.637" cy="116.998" r="4.213"/>
			<circle fill="#3C3C3B" cx="861.964" cy="116.998" r="4.214"/>
			
				<path fill="none" stroke="#3C3C3B" stroke-width="2.7611" stroke-linecap="round" stroke-linejoin="round" stroke-miterlimit="10" d="
				M878.75,118.45c0,0-9.16,2.262-5.729,7.804c2.836,4.58,9.172,0,9.172,0"/>
			
				<path fill="none" stroke="#3C3C3B" stroke-width="2.7611" stroke-linecap="round" stroke-linejoin="round" stroke-miterlimit="10" d="
				M903.854,97.968c0,0-1.869-4.771-9.217-4.771"/>
			
				<path fill="none" stroke="#3C3C3B" stroke-width="2.7611" stroke-linecap="round" stroke-linejoin="round" stroke-miterlimit="10" d="
				M851.832,97.968c0,0,1.871-4.771,9.219-4.771"/>
			<circle fill="#FFFFFF" cx="893.036" cy="114.809" r="1.724"/>
			<circle fill="#FFFFFF" cx="860.229" cy="114.809" r="1.723"/>
			
				<path fill="#3C3C3B" stroke="#3C3C3B" stroke-width="2.162" stroke-linecap="round" stroke-linejoin="round" stroke-miterlimit="10" d="
				M870.824,148.968c0-4.548,3.143-11.187,7.021-11.187c3.881,0,7.025,6.639,7.025,11.187c0,4.547-3.145,4.636-7.025,4.636
				C873.967,153.604,870.824,153.515,870.824,148.968z"/>
		</g>
	</g>
</g>
<g>
	<g opacity="0.2">
		<g>
			<path fill="#1D1D1B" d="M1013.333,11.386c-18.608,0-36.467,9.29-36.904,72.936c-0.436,63.647,0.438,80.189,1.743,84.115
				c1.305,3.926,11.324,6.976,13.938,18.734c2.615,11.763-0.868,70.568-2.613,117.178c-1.741,46.611-10.02,92.349,27.879,92.349
				c20.473,0,23.957-18.732,23.957-32.236c0-13.501-10.02-104.106-11.324-133.729c-1.309-29.62-4.911-66.876,2.176-125.888
				C1039.229,46.175,1051.543,11.386,1013.333,11.386z"/>
		</g>
		<g>
			<path opacity="0.3" d="M1013.333,11.386c-18.608,0-36.467,9.29-36.904,72.936c-0.436,63.647,0.438,80.189,1.743,84.115
				c1.305,3.926,11.324,6.976,13.938,18.734c2.615,11.763-0.868,70.568-2.613,117.178c-1.741,46.611-10.02,92.349,27.879,92.349
				c20.473,0,23.957-18.732,23.957-32.236c0-13.501-10.02-104.106-11.324-133.729c-1.309-29.62-4.911-66.876,2.176-125.888
				C1039.229,46.175,1051.543,11.386,1013.333,11.386z"/>
		</g>
	</g>
	<g>
		<g>
			<g>
				<g>
					<g>
						<g>
							<path fill="#C8C8C8" d="M1007.687,7.303c-18.608,0-36.467,9.289-36.904,72.936c-0.437,63.646,0.438,80.188,1.743,84.114
								c1.305,3.926,11.324,6.976,13.938,18.734c2.615,11.763-0.868,70.568-2.613,117.179c-1.741,46.611-10.02,92.348,27.878,92.348
								c20.474,0,23.958-18.732,23.958-32.236c0-13.5-10.02-104.105-11.324-133.729c-1.309-29.619-4.911-66.876,2.176-125.887
								C1033.583,42.092,1045.896,7.303,1007.687,7.303z"/>
						</g>
						<g>
							<path fill="#C8C8C8" d="M1007.687,7.303c-18.608,0-36.467,9.289-36.904,72.936c-0.437,63.646,0.438,80.188,1.743,84.114
								c1.305,3.926,11.324,6.976,13.938,18.734c2.615,11.763-0.868,70.568-2.613,117.179c-1.741,46.611-10.02,92.348,27.878,92.348
								c20.474,0,23.958-18.732,23.958-32.236c0-13.5-10.02-104.105-11.324-133.729c-1.309-29.619-4.911-66.876,2.176-125.887
								C1033.583,42.092,1045.896,7.303,1007.687,7.303z"/>
						</g>
					</g>
					<path fill="#D7D7D7" d="M970.764,83.124l54.26,31.553c-1.093,11.158-1.801,21.499-2.221,31.111l-52.128-30.313
						C970.655,106.418,970.686,95.71,970.764,83.124z"/>
					<path fill="#D7D7D7" d="M977.65,169.608c14.82,2.392,29.706,4.541,44.656,4.829c0.169,20.517,1.396,37.338,2.055,52.21
						c0.15,3.463,0.422,7.764,0.784,12.669c-4.039-9.552-10.765-17.589-21.968-17.589c-8.298,0-13.56,9.188-16.879,20.005
						c1.113-27.9,1.723-51.631,0.164-58.646C984.955,176.301,980.992,172.435,977.65,169.608z"/>
					<path fill="#D7D7D7" d="M1030.139,74.182c-0.642,4.46-1.307,9.106-1.971,13.954L972.062,55.51
						c0.565-5.288,1.318-9.979,2.218-14.194L1030.139,74.182z"/>
					<path fill="#D7D7D7" d="M978.57,80.238c-0.44,63.646,0.438,80.188,1.742,84.114c0.242,0.736,0.796,1.44,1.545,2.179
						c-2.405-0.248-4.962,0.022-7.391,0.361c-0.944-0.87-1.656-1.685-1.941-2.54c-1.306-3.926-2.18-20.468-1.743-84.114
						c0.438-63.646,18.296-72.936,36.904-72.936c1.385,0,2.685,0.06,3.941,0.151C994.477,8.851,978.975,20.992,978.57,80.238z"/>
				</g>
				<g>
					<path fill="#B5B5B5" d="M1011.728,381.569c17.714,0,22.706-14.02,23.731-26.547c0.146,2.33,0.227,4.152,0.227,5.354
						c0,13.504-3.484,32.236-23.958,32.236c-26.651,0-30.458-22.627-29.771-52.259
						C982.632,364.379,988.504,381.569,1011.728,381.569z"/>
				</g>
			</g>
			<defs>
				<filter id="Adobe_OpacityMaskFilter_8_" filterUnits="userSpaceOnUse" x="971.602" y="165.162" width="59.906" height="10.616">
					<feColorMatrix  type="matrix" values="1 0 0 0 0  0 1 0 0 0  0 0 1 0 0  0 0 0 1 0"/>
				</filter>
			</defs>
			<mask maskUnits="userSpaceOnUse" x="971.602" y="165.162" width="59.906" height="10.616" id="SVGID_17_">
				<g filter="url(#Adobe_OpacityMaskFilter_8_)">
					<path fill="#FFFFFF" d="M1007.687,7.303c-18.608,0-36.467,9.289-36.904,72.936c-0.437,63.646,0.438,80.188,1.743,84.114
						c1.305,3.926,11.324,6.976,13.938,18.734c2.615,11.763-0.868,70.568-2.613,117.179c-1.741,46.611-10.02,92.348,27.878,92.348
						c20.474,0,23.958-18.732,23.958-32.236c0-13.5-10.02-104.105-11.324-133.729c-1.309-29.619-4.911-66.876,2.176-125.887
						C1033.583,42.092,1045.896,7.303,1007.687,7.303z"/>
				</g>
			</mask>
			
				<line mask="url(#SVGID_17_)" fill="none" stroke="#B5B5B5" stroke-width="5.5223" stroke-miterlimit="10" x1="1031.271" y1="173.027" x2="971.838" y2="167.913"/>
		</g>
		<g>
			<circle fill="#FFFFFF" cx="1014.636" cy="116.998" r="7.626"/>
			<circle fill="#FFFFFF" cx="981.963" cy="116.998" r="7.626"/>
			<circle fill="#3C3C3B" cx="1014.636" cy="116.998" r="4.213"/>
			<circle fill="#3C3C3B" cx="981.963" cy="116.998" r="4.213"/>
			
				<path fill="none" stroke="#3C3C3B" stroke-width="2.7611" stroke-linecap="round" stroke-linejoin="round" stroke-miterlimit="10" d="
				M998.751,118.45c0,0-9.161,2.263-5.73,7.803c2.837,4.58,9.173,0,9.173,0"/>
			
				<path fill="none" stroke="#3C3C3B" stroke-width="2.7611" stroke-linecap="round" stroke-linejoin="round" stroke-miterlimit="10" d="
				M1023.854,97.967c0,0-1.87-4.77-9.219-4.77"/>
			
				<path fill="none" stroke="#3C3C3B" stroke-width="2.7611" stroke-linecap="round" stroke-linejoin="round" stroke-miterlimit="10" d="
				M971.832,97.967c0,0,1.871-4.77,9.219-4.77"/>
			<circle fill="#FFFFFF" cx="1013.036" cy="114.809" r="1.723"/>
			<circle fill="#FFFFFF" cx="980.229" cy="114.809" r="1.723"/>
			
				<path fill="none" stroke="#3C3C3B" stroke-width="2.7611" stroke-linecap="round" stroke-linejoin="round" stroke-miterlimit="10" d="
				M983.371,146.873c0,0,2.806-7.417,14.929-7.417s16.336,9.765,16.336,9.765"/>
		</g>
	</g>
</g>
<g>
	<g opacity="0.2">
		<g>
			<path fill="#1D1D1B" d="M1133.32,11.735c-18.576,0-36.402,9.272-36.838,72.802c-0.436,63.53,0.436,80.042,1.74,83.961
				c1.301,3.918,11.303,6.963,13.912,18.7c2.609,11.741-0.867,70.438-2.609,116.963c-1.738,46.526-10.002,92.18,27.828,92.18
				c20.436,0,23.914-18.698,23.914-32.178c0-13.476-10.002-103.915-11.303-133.484c-1.307-29.565-4.902-66.753,2.17-125.657
				C1159.168,46.46,1171.459,11.735,1133.32,11.735z"/>
		</g>
		<g>
			<path opacity="0.3" d="M1133.32,11.735c-18.576,0-36.402,9.272-36.838,72.802c-0.436,63.53,0.436,80.042,1.74,83.961
				c1.301,3.918,11.303,6.963,13.912,18.7c2.609,11.741-0.867,70.438-2.609,116.963c-1.738,46.526-10.002,92.18,27.828,92.18
				c20.436,0,23.914-18.698,23.914-32.178c0-13.476-10.002-103.915-11.303-133.484c-1.307-29.565-4.902-66.753,2.17-125.657
				C1159.168,46.46,1171.459,11.735,1133.32,11.735z"/>
		</g>
	</g>
	<g>
		<g>
			<g>
				<g>
					<g>
						<g>
							<path fill="#C8C8C8" d="M1127.684,7.659c-18.576,0-36.4,9.272-36.838,72.802c-0.436,63.53,0.438,80.042,1.74,83.961
								c1.303,3.919,11.303,6.963,13.912,18.7c2.609,11.741-0.867,70.439-2.609,116.964c-1.736,46.525-10,92.179,27.828,92.179
								c20.436,0,23.914-18.698,23.914-32.177c0-13.477-10.002-103.916-11.303-133.485c-1.307-29.565-4.902-66.753,2.17-125.657
								C1153.531,42.384,1165.824,7.659,1127.684,7.659z"/>
						</g>
						<g>
							<path fill="#C8C8C8" d="M1127.684,7.659c-18.576,0-36.4,9.272-36.838,72.802c-0.436,63.53,0.438,80.042,1.74,83.961
								c1.303,3.919,11.303,6.963,13.912,18.7c2.609,11.741-0.867,70.439-2.609,116.964c-1.736,46.525-10,92.179,27.828,92.179
								c20.436,0,23.914-18.698,23.914-32.177c0-13.477-10.002-103.916-11.303-133.485c-1.307-29.565-4.902-66.753,2.17-125.657
								C1153.531,42.384,1165.824,7.659,1127.684,7.659z"/>
						</g>
					</g>
					<path fill="#D7D7D7" d="M1090.828,83.341l54.16,31.496c-1.09,11.137-1.797,21.459-2.217,31.054l-52.033-30.258
						C1090.721,106.593,1090.75,95.904,1090.828,83.341z"/>
					<path fill="#D7D7D7" d="M1097.703,169.667c14.791,2.387,29.65,4.533,44.572,4.82c0.17,20.48,1.395,37.27,2.053,52.115
						c0.148,3.457,0.42,7.749,0.781,12.646c-4.031-9.534-10.744-17.557-21.928-17.557c-8.281,0-13.535,9.171-16.848,19.969
						c1.111-27.85,1.719-51.537,0.164-58.538C1104.994,176.348,1101.037,172.489,1097.703,169.667z"/>
					<path fill="#D7D7D7" d="M1150.094,74.416c-0.641,4.452-1.305,9.09-1.967,13.929l-56.004-32.567
						c0.564-5.278,1.316-9.961,2.215-14.168L1150.094,74.416z"/>
					<path fill="#D7D7D7" d="M1098.619,80.461c-0.439,63.53,0.438,80.042,1.74,83.961c0.242,0.735,0.793,1.438,1.543,2.174
						c-2.402-0.247-4.953,0.022-7.379,0.361c-0.941-0.869-1.652-1.682-1.938-2.535c-1.303-3.918-2.176-20.431-1.74-83.961
						c0.438-63.53,18.262-72.802,36.838-72.802c1.381,0,2.68,0.059,3.934,0.151C1114.496,9.204,1099.023,21.324,1098.619,80.461z"/>
				</g>
				<g>
					<path fill="#B5B5B5" d="M1131.717,381.241c17.682,0,22.664-13.994,23.688-26.498c0.146,2.326,0.227,4.144,0.227,5.345
						c0,13.479-3.479,32.177-23.914,32.177c-26.602,0-30.402-22.586-29.717-52.163
						C1102.674,364.082,1108.535,381.241,1131.717,381.241z"/>
				</g>
			</g>
			<defs>
				
					<filter id="Adobe_OpacityMaskFilter_9_" filterUnits="userSpaceOnUse" x="1091.887" y="165.249" width="59.574" height="10.578">
					<feColorMatrix  type="matrix" values="1 0 0 0 0  0 1 0 0 0  0 0 1 0 0  0 0 0 1 0"/>
				</filter>
			</defs>
			<mask maskUnits="userSpaceOnUse" x="1091.887" y="165.249" width="59.574" height="10.578" id="SVGID_18_">
				<g filter="url(#Adobe_OpacityMaskFilter_9_)">
					<path fill="#FFFFFF" d="M1127.684,7.659c-18.576,0-36.4,9.272-36.838,72.802c-0.436,63.53,0.438,80.042,1.74,83.961
						c1.303,3.919,11.303,6.963,13.912,18.7c2.609,11.741-0.867,70.439-2.609,116.964c-1.736,46.525-10,92.179,27.828,92.179
						c20.436,0,23.914-18.698,23.914-32.177c0-13.477-10.002-103.916-11.303-133.485c-1.307-29.565-4.902-66.753,2.17-125.657
						C1153.531,42.384,1165.824,7.659,1127.684,7.659z"/>
				</g>
			</mask>
			
				<line mask="url(#SVGID_18_)" fill="none" stroke="#B5B5B5" stroke-width="5.5122" stroke-miterlimit="10" x1="1151.225" y1="173.081" x2="1092.123" y2="167.995"/>
		</g>
		<g>
			
				<path fill="none" stroke="#3C3C3B" stroke-width="2.7561" stroke-linecap="round" stroke-linejoin="round" stroke-miterlimit="10" d="
				M1118.764,118.603c0,0-9.145,2.258-5.719,7.789c2.83,4.571,9.154,0,9.154,0"/>
		</g>
		<g>
			<circle fill="#FFFFFF" cx="1102.027" cy="117.213" r="7.613"/>
			<circle fill="#FFFFFF" cx="1134.641" cy="117.213" r="7.613"/>
			<g>
				<circle fill="#3C3C3B" cx="1102.027" cy="117.523" r="4.205"/>
				<circle fill="#FFFFFF" cx="1103.625" cy="115.338" r="1.719"/>
			</g>
			<g>
				<circle fill="#3C3C3B" cx="1134.64" cy="117.523" r="4.206"/>
				<circle fill="#FFFFFF" cx="1136.372" cy="115.338" r="1.72"/>
			</g>
			
				<path fill="none" stroke="#3C3C3B" stroke-width="2.7561" stroke-linecap="round" stroke-linejoin="round" stroke-miterlimit="10" d="
				M1113.609,145.505c0,0,5.076-3.735,10.248-5.18c5.17-1.444,9.664-1.75,9.664-1.75"/>
			
				<line fill="none" stroke="#3C3C3B" stroke-width="2.7561" stroke-linecap="round" stroke-linejoin="round" stroke-miterlimit="10" x1="1091.895" y1="111.362" x2="1109.715" y2="109.254"/>
			
				<path fill="none" stroke="#3C3C3B" stroke-width="2.7561" stroke-linecap="round" stroke-linejoin="round" stroke-miterlimit="10" d="
				M1128.238,102.098c0,0,3.654-1.356,9.039,0.095s7.988,6.012,7.988,6.012"/>
		</g>
	</g>
</g>
<g>
	<g opacity="0.2">
		<g>
			<path fill="#1D1D1B" d="M1253.314,11.875c-18.563,0-36.375,9.266-36.811,72.749s0.436,79.983,1.738,83.898
				c1.301,3.916,11.295,6.958,13.902,18.687c2.607,11.732-0.867,70.387-2.607,116.877c-1.736,46.492-9.994,92.111,27.809,92.111
				c20.42,0,23.895-18.685,23.895-32.153c0-13.466-9.994-103.839-11.295-133.387c-1.305-29.543-4.898-66.704,2.17-125.564
				C1279.145,46.575,1291.426,11.875,1253.314,11.875z"/>
		</g>
		<g>
			<path opacity="0.3" d="M1253.314,11.875c-18.563,0-36.375,9.266-36.811,72.749s0.436,79.983,1.738,83.898
				c1.301,3.916,11.295,6.958,13.902,18.687c2.607,11.732-0.867,70.387-2.607,116.877c-1.736,46.492-9.994,92.111,27.809,92.111
				c20.42,0,23.895-18.685,23.895-32.153c0-13.466-9.994-103.839-11.295-133.387c-1.305-29.543-4.898-66.704,2.17-125.564
				C1279.145,46.575,1291.426,11.875,1253.314,11.875z"/>
		</g>
	</g>
	<g>
		<g>
			<g>
				<g>
					<g>
						<g>
							<path fill="#C8C8C8" d="M1247.682,7.803c-18.561,0-36.373,9.265-36.809,72.748c-0.436,63.483,0.436,79.983,1.738,83.899
								c1.301,3.916,11.295,6.958,13.9,18.687c2.609,11.732-0.865,70.387-2.605,116.876c-1.736,46.492-9.994,92.112,27.807,92.112
								c20.42,0,23.896-18.685,23.896-32.154c0-13.466-9.994-103.839-11.295-133.386c-1.307-29.544-4.898-66.705,2.17-125.564
								C1273.512,42.502,1285.793,7.803,1247.682,7.803z"/>
						</g>
						<g>
							<path fill="#C8C8C8" d="M1247.682,7.803c-18.561,0-36.373,9.265-36.809,72.748c-0.436,63.483,0.436,79.983,1.738,83.899
								c1.301,3.916,11.295,6.958,13.9,18.687c2.609,11.732-0.865,70.387-2.605,116.876c-1.736,46.492-9.994,92.112,27.807,92.112
								c20.42,0,23.896-18.685,23.896-32.154c0-13.466-9.994-103.839-11.295-133.386c-1.307-29.544-4.898-66.705,2.17-125.564
								C1273.512,42.502,1285.793,7.803,1247.682,7.803z"/>
						</g>
					</g>
					<path fill="#D7D7D7" d="M1210.854,83.429l54.121,31.472c-1.09,11.129-1.797,21.443-2.215,31.031l-51.994-30.236
						C1210.746,106.663,1210.775,95.982,1210.854,83.429z"/>
					<path fill="#D7D7D7" d="M1217.723,169.691c14.781,2.385,29.631,4.529,44.541,4.817c0.17,20.464,1.393,37.242,2.051,52.077
						c0.148,3.454,0.42,7.743,0.781,12.635c-4.029-9.526-10.736-17.543-21.912-17.543c-8.275,0-13.523,9.164-16.836,19.954
						c1.111-27.829,1.719-51.499,0.164-58.495C1225.01,176.367,1221.055,172.51,1217.723,169.691z"/>
					<path fill="#D7D7D7" d="M1270.076,74.51c-0.641,4.449-1.303,9.083-1.967,13.918l-55.961-32.542
						c0.564-5.274,1.314-9.954,2.213-14.158L1270.076,74.51z"/>
					<path fill="#D7D7D7" d="M1218.641,80.551c-0.439,63.483,0.436,79.983,1.736,83.899c0.242,0.734,0.795,1.436,1.543,2.173
						c-2.4-0.247-4.951,0.022-7.373,0.36c-0.941-0.868-1.652-1.681-1.936-2.533c-1.303-3.916-2.174-20.416-1.738-83.899
						c0.436-63.483,18.248-72.748,36.809-72.748c1.381,0,2.678,0.059,3.932,0.15C1234.506,9.347,1219.043,21.457,1218.641,80.551z"
						/>
				</g>
				<g>
					<path fill="#B5B5B5" d="M1251.713,381.108c17.668,0,22.648-13.982,23.67-26.479c0.145,2.324,0.227,4.142,0.227,5.341
						c0,13.47-3.477,32.154-23.896,32.154c-26.584,0-30.381-22.57-29.695-52.126
						C1222.691,363.963,1228.549,381.108,1251.713,381.108z"/>
				</g>
			</g>
			<defs>
				
					<filter id="Adobe_OpacityMaskFilter_10_" filterUnits="userSpaceOnUse" x="1212.652" y="165.339" width="58.791" height="10.507">
					<feColorMatrix  type="matrix" values="1 0 0 0 0  0 1 0 0 0  0 0 1 0 0  0 0 0 1 0"/>
				</filter>
			</defs>
			<mask maskUnits="userSpaceOnUse" x="1212.652" y="165.339" width="58.791" height="10.507" id="SVGID_19_">
				<g filter="url(#Adobe_OpacityMaskFilter_10_)">
					<path fill="#FFFFFF" d="M1247.682,7.803c-18.561,0-36.373,9.265-36.809,72.748c-0.436,63.483,0.436,79.983,1.738,83.899
						c1.301,3.916,11.295,6.958,13.9,18.687c2.609,11.732-0.865,70.387-2.605,116.876c-1.736,46.492-9.994,92.112,27.807,92.112
						c20.42,0,23.896-18.685,23.896-32.154c0-13.466-9.994-103.839-11.295-133.386c-1.307-29.544-4.898-66.705,2.17-125.564
						C1273.512,42.502,1285.793,7.803,1247.682,7.803z"/>
				</g>
			</mask>
			
				<line mask="url(#SVGID_19_)" fill="none" stroke="#B5B5B5" stroke-width="5.5081" stroke-miterlimit="10" x1="1271.207" y1="173.102" x2="1212.889" y2="168.083"/>
		</g>
		<g>
			
				<path fill="none" stroke="#3C3C3B" stroke-width="2.754" stroke-linecap="round" stroke-linejoin="round" stroke-miterlimit="10" d="
				M1238.77,118.665c0,0-9.139,2.257-5.715,7.783c2.828,4.568,9.148,0,9.148,0"/>
		</g>
		<g>
			
				<path fill="none" stroke="#3C3C3B" stroke-width="2.754" stroke-linecap="round" stroke-linejoin="round" stroke-miterlimit="10" d="
				M1211.551,108.219c0,0,1.389-2.43,4.629-4.333c4.281-2.514,6.664-2.296,6.664-2.296"/>
			
				<path fill="none" stroke="#3C3C3B" stroke-width="2.754" stroke-linecap="round" stroke-linejoin="round" stroke-miterlimit="10" d="
				M1264.277,108.219c0,0-1.389-2.43-4.629-4.333c-4.281-2.514-6.662-2.296-6.662-2.296"/>
			<g>
				<defs>
					<path id="SVGID_20_" d="M1211.172,118.529l20.012,5.36c0,0-0.406-16.537-6.291-18.114
						C1219.006,104.199,1211.172,118.529,1211.172,118.529z"/>
				</defs>
				<clipPath id="SVGID_21_">
					<use xlink:href="#SVGID_20_"  overflow="visible"/>
				</clipPath>
				<g clip-path="url(#SVGID_21_)">
					<circle fill="#FFFFFF" cx="1222.135" cy="117.253" r="7.607"/>
					<g>
						<circle fill="#3C3C3B" cx="1222.108" cy="117.24" r="4.202"/>
						<circle fill="#FFFFFF" cx="1223.705" cy="115.056" r="1.719"/>
					</g>
				</g>
			</g>
			<g>
				<defs>
					<path id="SVGID_22_" d="M1246.051,123.495l20.193-4.623c0,0-6.596-14.987-15.258-12.105
						C1245.205,108.69,1246.051,123.495,1246.051,123.495z"/>
				</defs>
				<clipPath id="SVGID_23_">
					<use xlink:href="#SVGID_22_"  overflow="visible"/>
				</clipPath>
				<g clip-path="url(#SVGID_23_)">
					<circle fill="#FFFFFF" cx="1254.723" cy="117.253" r="7.607"/>
					<g>
						<circle fill="#3C3C3B" cx="1254.696" cy="117.24" r="4.202"/>
						<circle fill="#FFFFFF" cx="1256.429" cy="115.056" r="1.718"/>
					</g>
				</g>
			</g>
			
				<path fill="#3C3C3B" stroke="#3C3C3B" stroke-width="1.8571" stroke-linecap="round" stroke-linejoin="round" stroke-miterlimit="10" d="
				M1227.164,148.293c0-1.979,5.332-7.311,11.91-7.311c6.58,0,11.912,5.332,11.912,7.311c0,1.978-5.332-0.427-11.912-0.427
				C1232.496,147.867,1227.164,150.271,1227.164,148.293z"/>
		</g>
	</g>
</g>
<g>
	<g opacity="0.2">
		<g>
			<path fill="#1D1D1B" d="M1375.016,11.875c-18.56,0-36.373,9.266-36.809,72.749s0.436,79.983,1.737,83.898
				c1.302,3.916,11.296,6.958,13.902,18.687c2.609,11.732-0.865,70.387-2.606,116.877c-1.737,46.492-9.994,92.111,27.808,92.111
				c20.42,0,23.895-18.685,23.895-32.153c0-13.466-9.993-103.839-11.294-133.387c-1.305-29.543-4.898-66.704,2.17-125.564
				C1400.846,46.576,1413.128,11.875,1375.016,11.875z"/>
		</g>
		<g>
			<path opacity="0.3" d="M1375.016,11.875c-18.56,0-36.373,9.266-36.809,72.749s0.436,79.983,1.737,83.898
				c1.302,3.916,11.296,6.958,13.902,18.687c2.609,11.732-0.865,70.387-2.606,116.877c-1.737,46.492-9.994,92.111,27.808,92.111
				c20.42,0,23.895-18.685,23.895-32.153c0-13.466-9.993-103.839-11.294-133.387c-1.305-29.543-4.898-66.704,2.17-125.564
				C1400.846,46.576,1413.128,11.875,1375.016,11.875z"/>
		</g>
	</g>
	<g>
		<g>
			<g>
				<g>
					<g>
						<g>
							<path fill="#C8C8C8" d="M1369.384,7.803c-18.561,0-36.373,9.265-36.809,72.748c-0.437,63.483,0.436,79.983,1.737,83.899
								s11.296,6.958,13.902,18.687c2.608,11.732-0.866,70.387-2.606,116.876c-1.737,46.492-9.994,92.112,27.808,92.112
								c20.42,0,23.895-18.685,23.895-32.154c0-13.466-9.993-103.839-11.295-133.386c-1.304-29.544-4.898-66.705,2.171-125.564
								C1395.214,42.502,1407.496,7.803,1369.384,7.803z"/>
						</g>
						<g>
							<path fill="#C8C8C8" d="M1369.384,7.803c-18.561,0-36.373,9.265-36.809,72.748c-0.437,63.483,0.436,79.983,1.737,83.899
								s11.296,6.958,13.902,18.687c2.608,11.732-0.866,70.387-2.606,116.876c-1.737,46.492-9.994,92.112,27.808,92.112
								c20.42,0,23.895-18.685,23.895-32.154c0-13.466-9.993-103.839-11.295-133.386c-1.304-29.544-4.898-66.705,2.171-125.564
								C1395.214,42.502,1407.496,7.803,1369.384,7.803z"/>
						</g>
					</g>
					<path fill="#D7D7D7" d="M1332.556,83.429l54.121,31.472c-1.09,11.129-1.797,21.443-2.215,31.032l-51.995-30.236
						C1332.448,106.664,1332.479,95.982,1332.556,83.429z"/>
					<path fill="#D7D7D7" d="M1339.426,169.691c14.782,2.385,29.629,4.529,44.541,4.817c0.169,20.464,1.393,37.242,2.049,52.077
						c0.15,3.454,0.422,7.743,0.783,12.635c-4.03-9.526-10.737-17.543-21.912-17.543c-8.276,0-13.525,9.164-16.836,19.954
						c1.11-27.829,1.718-51.499,0.164-58.495C1346.711,176.367,1342.758,172.51,1339.426,169.691z"/>
					<path fill="#D7D7D7" d="M1391.778,74.51c-0.64,4.449-1.303,9.083-1.966,13.918l-55.962-32.542
						c0.563-5.274,1.314-9.954,2.212-14.158L1391.778,74.51z"/>
					<path fill="#D7D7D7" d="M1340.342,80.551c-0.438,63.483,0.437,79.983,1.738,83.899c0.241,0.734,0.793,1.436,1.541,2.173
						c-2.399-0.247-4.949,0.022-7.371,0.36c-0.941-0.868-1.652-1.681-1.938-2.533c-1.302-3.916-2.174-20.416-1.737-83.899
						c0.436-63.483,18.248-72.748,36.809-72.748c1.381,0,2.678,0.059,3.932,0.15C1356.207,9.347,1340.746,21.457,1340.342,80.551z"
						/>
				</g>
				<g>
					<path fill="#B5B5B5" d="M1373.416,381.108c17.667,0,22.647-13.982,23.67-26.479c0.145,2.324,0.225,4.142,0.225,5.341
						c0,13.47-3.475,32.154-23.895,32.154c-26.584,0-30.382-22.57-29.696-52.126
						C1344.393,363.963,1350.251,381.108,1373.416,381.108z"/>
				</g>
			</g>
			<defs>
				<filter id="Adobe_OpacityMaskFilter_11_" filterUnits="userSpaceOnUse" x="1333.614" y="165.276" width="59.53" height="10.57">
					<feColorMatrix  type="matrix" values="1 0 0 0 0  0 1 0 0 0  0 0 1 0 0  0 0 0 1 0"/>
				</filter>
			</defs>
			<mask maskUnits="userSpaceOnUse" x="1333.614" y="165.276" width="59.53" height="10.57" id="SVGID_24_">
				<g filter="url(#Adobe_OpacityMaskFilter_11_)">
					<path fill="#FFFFFF" d="M1369.384,7.803c-18.561,0-36.373,9.265-36.809,72.748c-0.437,63.483,0.436,79.983,1.737,83.899
						s11.296,6.958,13.902,18.687c2.608,11.732-0.866,70.387-2.606,116.876c-1.737,46.492-9.994,92.112,27.808,92.112
						c20.42,0,23.895-18.685,23.895-32.154c0-13.466-9.993-103.839-11.295-133.386c-1.304-29.544-4.898-66.705,2.171-125.564
						C1395.214,42.502,1407.496,7.803,1369.384,7.803z"/>
				</g>
			</mask>
			
				<line mask="url(#SVGID_24_)" fill="none" stroke="#B5B5B5" stroke-width="5.5081" stroke-miterlimit="10" x1="1392.908" y1="173.102" x2="1333.851" y2="168.02"/>
		</g>
		<g>
			
				<path fill="none" stroke="#3C3C3B" stroke-width="2.754" stroke-linecap="round" stroke-linejoin="round" stroke-miterlimit="10" d="
				M1360.472,118.665c0,0-9.138,2.257-5.715,7.783c2.828,4.568,9.147,0,9.147,0"/>
		</g>
		<g>
			<g>
				<defs>
					<polygon id="SVGID_25_" points="1337.249,108.305 1354.195,117.508 1344.738,137.544 1329.058,121.273 					"/>
				</defs>
				<clipPath id="SVGID_26_">
					<use xlink:href="#SVGID_25_"  overflow="visible"/>
				</clipPath>
				<g clip-path="url(#SVGID_26_)">
					<circle fill="#FFFFFF" cx="1343.839" cy="117.234" r="7.606"/>
					<g>
						<circle fill="#3C3C3B" cx="1343.813" cy="116.755" r="4.203"/>
						<circle fill="#FFFFFF" cx="1345.41" cy="114.572" r="1.718"/>
					</g>
				</g>
			</g>
			<g>
				<defs>
					<polygon id="SVGID_27_" points="1382.399,107.877 1365.937,117.917 1368.87,126.853 1388.318,124.715 					"/>
				</defs>
				<clipPath id="SVGID_28_">
					<use xlink:href="#SVGID_27_"  overflow="visible"/>
				</clipPath>
				<g clip-path="url(#SVGID_28_)">
					<circle fill="#FFFFFF" cx="1376.428" cy="117.234" r="7.607"/>
					<g>
						<circle fill="#3C3C3B" cx="1376.401" cy="116.755" r="4.203"/>
						<circle fill="#FFFFFF" cx="1378.133" cy="114.572" r="1.719"/>
					</g>
				</g>
			</g>
			
				<path fill="none" stroke="#3C3C3B" stroke-width="2.754" stroke-linecap="round" stroke-linejoin="round" stroke-miterlimit="10" d="
				M1336.232,108.174c0,0,5.449,3.068,8.688,4.972c4.281,2.514,6.663,3.926,6.663,3.926"/>
			
				<path fill="none" stroke="#3C3C3B" stroke-width="2.754" stroke-linecap="round" stroke-linejoin="round" stroke-miterlimit="10" d="
				M1384.035,108.174c0,0-5.729,3.068-8.97,4.972c-4.281,2.514-6.663,3.926-6.663,3.926"/>
			
				<path fill="none" stroke="#3C3C3B" stroke-width="2.754" stroke-linecap="round" stroke-linejoin="round" stroke-miterlimit="10" d="
				M1348.862,144.811c0,0,4.041-6.132,10.619-6.132c6.579,0,13.204,6.132,13.204,6.132"/>
		</g>
	</g>
</g>
</svg>
